<?xml version="1.0" encoding="utf-8"?>
<!-- Generator: Adobe Illustrator 24.2.3, SVG Export Plug-In . SVG Version: 6.00 Build 0)  -->
<svg version="1.1" id="Layer_1" xmlns="http://www.w3.org/2000/svg" x="0px"
     y="0px"
     viewBox="0 0 245 240" style="enable-background:new 0 0 245 240;" xml:space="preserve">
<style type="text/css">
	.st0{fill:#FFFFFF;}
</style>
    <path class="st0" d="M104.4,103.9c-5.7,0-10.2,5-10.2,11.1s4.6,11.1,10.2,11.1c5.7,0,10.2-5,10.2-11.1
	C114.7,108.9,110.1,103.9,104.4,103.9z M140.9,103.9c-5.7,0-10.2,5-10.2,11.1s4.6,11.1,10.2,11.1c5.7,0,10.2-5,10.2-11.1
	S146.6,103.9,140.9,103.9z"/>
    <path class="st0" d="M202.9,0H42.1C28.5,0,17.5,11,17.5,24.7V187c0,13.7,11,24.7,24.6,24.7h136.1l-6.4-22.2l15.4,14.3l14.5,13.4
	l25.8,22.8V24.7C227.5,11,216.5,0,202.9,0z M156.6,156.7c0,0-4.3-5.2-7.9-9.7c15.7-4.4,21.7-14.3,21.7-14.3
	c-4.9,3.2-9.6,5.5-13.8,7.1c-6,2.5-11.8,4.2-17.4,5.2c-11.5,2.2-22.1,1.6-31.1-0.1c-6.8-1.3-12.7-3.2-17.6-5.2
	c-2.8-1.1-5.8-2.4-8.8-4.1c-0.4-0.2-0.7-0.4-1.1-0.6c-0.2-0.1-0.4-0.2-0.5-0.4c-2.2-1.2-3.4-2-3.4-2s5.8,9.6,21,14.2
	c-3.6,4.6-8,10-8,10c-26.5-0.8-36.6-18.2-36.6-18.2c0-38.6,17.3-70,17.3-70c17.3-13,33.7-12.6,33.7-12.6l1.2,1.4
	c-21.6,6.2-31.6,15.7-31.6,15.7s2.6-1.4,7.1-3.5c12.8-5.6,23-7.2,27.2-7.6c0.7-0.1,1.3-0.2,2-0.2c7.3-1,15.6-1.2,24.2-0.2
	c11.4,1.3,23.6,4.7,36.1,11.5c0,0-9.5-9-29.9-15.2l1.7-1.9c0,0,16.4-0.4,33.7,12.6c0,0,17.3,31.3,17.3,70
	C193.3,138.5,183.1,155.9,156.6,156.7z"/>
</svg>
