<svg xmlns="http://www.w3.org/2000/svg" width="85" height="85"
     viewBox="0 0 85 85">
    <defs>
        <clipPath id="clip-path">
            <rect id="Rectangle_56" data-name="Rectangle 56" width="40" height="40" transform="translate(815 2590)"
                  fill="#3a4f98" stroke="#707070" stroke-width="1"/>
        </clipPath>
    </defs>
    <g id="Group_92" data-name="Group 92" transform="translate(-792 -2567)">
        <rect id="Rectangle_28" data-name="Rectangle 28" width="85" height="85" rx="10" transform="translate(792 2567)"
              fill="#7289da"/>
        <g id="Mask_Group_6" data-name="Mask Group 6" clip-path="url(#clip-path)">
            <g id="Discord-Logo-Color" transform="translate(810.5 2586)">
                <path id="Path_90" data-name="Path 90"
                      d="M20.88,20.78A2.228,2.228,0,1,0,22.92,23,2.131,2.131,0,0,0,20.88,20.78Zm7.3,0A2.228,2.228,0,1,0,30.22,23,2.131,2.131,0,0,0,28.18,20.78Z"
                      fill="#3a4f98"/>
                <path id="Path_91" data-name="Path 91"
                      d="M37.9,4H11.1A4.11,4.11,0,0,0,7,8.12V35.16a4.11,4.11,0,0,0,4.1,4.12H33.78l-1.06-3.7,2.56,2.38L37.7,40.2,42,44V8.12A4.11,4.11,0,0,0,37.9,4ZM30.18,30.12s-.72-.86-1.32-1.62a6.311,6.311,0,0,0,3.62-2.38,11.445,11.445,0,0,1-2.3,1.18,13.164,13.164,0,0,1-2.9.86,14.01,14.01,0,0,1-5.18-.02,16.789,16.789,0,0,1-2.94-.86,11.721,11.721,0,0,1-1.46-.68c-.06-.04-.12-.06-.18-.1a.276.276,0,0,1-.08-.06c-.36-.2-.56-.34-.56-.34a6.22,6.22,0,0,0,3.5,2.36c-.6.76-1.34,1.66-1.34,1.66a7.251,7.251,0,0,1-6.1-3.04,26.783,26.783,0,0,1,2.88-11.66,9.89,9.89,0,0,1,5.62-2.1l.2.24a13.493,13.493,0,0,0-5.26,2.62s.44-.24,1.18-.58a15.019,15.019,0,0,1,4.54-1.26,1.97,1.97,0,0,1,.34-.04,16.922,16.922,0,0,1,4.04-.04,16.3,16.3,0,0,1,6.02,1.92,13.31,13.31,0,0,0-4.98-2.54l.28-.32a9.89,9.89,0,0,1,5.62,2.1A26.783,26.783,0,0,1,36.3,27.08,7.311,7.311,0,0,1,30.18,30.12Z"
                      fill="#3a4f98"/>
            </g>
        </g>
    </g>
</svg>
