<svg xmlns="http://www.w3.org/2000/svg" xmlns:xlink="http://www.w3.org/1999/xlink" width="100" height="100" viewBox="0 0 100 100">
  <defs>
    <clipPath id="clip-path">
      <rect id="Rectangle_10" data-name="Rectangle 10" width="45" height="45" transform="translate(611 1255)" fill="#2fa4e5" stroke="#707070" stroke-width="1"/>
    </clipPath>
  </defs>
  <g id="Group_11" data-name="Group 11" transform="translate(-583 -1227)">
    <rect id="Rectangle_9" data-name="Rectangle 9" width="100" height="100" rx="10" transform="translate(583 1227)" fill="#c9ecff"/>
    <g id="Mask_Group_2" data-name="Mask Group 2" clip-path="url(#clip-path)">
      <g id="brush" transform="translate(611 1255)">
        <g id="Group_5" data-name="Group 5">
          <g id="Group_4" data-name="Group 4">
            <path id="Path_17" data-name="Path 17" d="M38.523,0a6.52,6.52,0,0,0-5.2,2.617L25.757,13.384a2.418,2.418,0,0,1-3.517.251L20.115,11.51a4.35,4.35,0,0,0-3.1-1.282h-.288a4.35,4.35,0,0,0-3.1,1.282l-3.108,3.108a1.022,1.022,0,0,0,0,1.446L28.936,34.473a1.022,1.022,0,0,0,1.446,0l3.108-3.108a4.35,4.35,0,0,0,1.282-3.1v-.288a4.35,4.35,0,0,0-1.282-3.1L31.365,22.76a2.334,2.334,0,0,1,.225-3.5l10.818-7.6A6.476,6.476,0,0,0,38.523,0Zm.341,8.182a2.045,2.045,0,1,1,2.046-2.045A2.048,2.048,0,0,1,38.864,8.182Z" fill="#2fa4e5"/>
            <path id="Path_18" data-name="Path 18" d="M9.98,18.409a1.022,1.022,0,0,0-1.446,0L1.2,25.744a4.089,4.089,0,0,0,0,5.785L2.77,33.1a1.021,1.021,0,0,0,1.22.171l3.605-2-2,3.605a1.023,1.023,0,0,0,.171,1.22L13.471,43.8a4.089,4.089,0,0,0,5.785,0l7.335-7.335a1.022,1.022,0,0,0,0-1.446Z" fill="#2fa4e5"/>
          </g>
        </g>
      </g>
    </g>
  </g>
</svg>
