<svg xmlns="http://www.w3.org/2000/svg" xmlns:xlink="http://www.w3.org/1999/xlink" width="169" height="171" viewBox="0 0 169 171">
  <defs>
    <clipPath id="clip-path">
      <rect width="169" height="171" fill="none"/>
    </clipPath>
  </defs>
  <g id="Repeat_Grid_2" data-name="Repeat Grid 2" opacity="0.02" clip-path="url(#clip-path)">
    <g transform="translate(-253 -823)">
      <circle id="Ellipse_5" data-name="Ellipse 5" cx="4" cy="4" r="4" transform="translate(253 823)" fill="#0a0a0a"/>
    </g>
    <g transform="translate(-237 -823)">
      <circle id="Ellipse_5-2" data-name="Ellipse 5" cx="4" cy="4" r="4" transform="translate(253 823)" fill="#0a0a0a"/>
    </g>
    <g transform="translate(-221 -823)">
      <circle id="Ellipse_5-3" data-name="Ellipse 5" cx="4" cy="4" r="4" transform="translate(253 823)" fill="#0a0a0a"/>
    </g>
    <g transform="translate(-205 -823)">
      <circle id="Ellipse_5-4" data-name="Ellipse 5" cx="4" cy="4" r="4" transform="translate(253 823)" fill="#0a0a0a"/>
    </g>
    <g transform="translate(-189 -823)">
      <circle id="Ellipse_5-5" data-name="Ellipse 5" cx="4" cy="4" r="4" transform="translate(253 823)" fill="#0a0a0a"/>
    </g>
    <g transform="translate(-173 -823)">
      <circle id="Ellipse_5-6" data-name="Ellipse 5" cx="4" cy="4" r="4" transform="translate(253 823)" fill="#0a0a0a"/>
    </g>
    <g transform="translate(-157 -823)">
      <circle id="Ellipse_5-7" data-name="Ellipse 5" cx="4" cy="4" r="4" transform="translate(253 823)" fill="#0a0a0a"/>
    </g>
    <g transform="translate(-141 -823)">
      <circle id="Ellipse_5-8" data-name="Ellipse 5" cx="4" cy="4" r="4" transform="translate(253 823)" fill="#0a0a0a"/>
    </g>
    <g transform="translate(-125 -823)">
      <circle id="Ellipse_5-9" data-name="Ellipse 5" cx="4" cy="4" r="4" transform="translate(253 823)" fill="#0a0a0a"/>
    </g>
    <g transform="translate(-109 -823)">
      <circle id="Ellipse_5-10" data-name="Ellipse 5" cx="4" cy="4" r="4" transform="translate(253 823)" fill="#0a0a0a"/>
    </g>
    <g transform="translate(-93 -823)">
      <circle id="Ellipse_5-11" data-name="Ellipse 5" cx="4" cy="4" r="4" transform="translate(253 823)" fill="#0a0a0a"/>
    </g>
    <g transform="translate(-253 -807)">
      <circle id="Ellipse_5-12" data-name="Ellipse 5" cx="4" cy="4" r="4" transform="translate(253 823)" fill="#0a0a0a"/>
    </g>
    <g transform="translate(-237 -807)">
      <circle id="Ellipse_5-13" data-name="Ellipse 5" cx="4" cy="4" r="4" transform="translate(253 823)" fill="#0a0a0a"/>
    </g>
    <g transform="translate(-221 -807)">
      <circle id="Ellipse_5-14" data-name="Ellipse 5" cx="4" cy="4" r="4" transform="translate(253 823)" fill="#0a0a0a"/>
    </g>
    <g transform="translate(-205 -807)">
      <circle id="Ellipse_5-15" data-name="Ellipse 5" cx="4" cy="4" r="4" transform="translate(253 823)" fill="#0a0a0a"/>
    </g>
    <g transform="translate(-189 -807)">
      <circle id="Ellipse_5-16" data-name="Ellipse 5" cx="4" cy="4" r="4" transform="translate(253 823)" fill="#0a0a0a"/>
    </g>
    <g transform="translate(-173 -807)">
      <circle id="Ellipse_5-17" data-name="Ellipse 5" cx="4" cy="4" r="4" transform="translate(253 823)" fill="#0a0a0a"/>
    </g>
    <g transform="translate(-157 -807)">
      <circle id="Ellipse_5-18" data-name="Ellipse 5" cx="4" cy="4" r="4" transform="translate(253 823)" fill="#0a0a0a"/>
    </g>
    <g transform="translate(-141 -807)">
      <circle id="Ellipse_5-19" data-name="Ellipse 5" cx="4" cy="4" r="4" transform="translate(253 823)" fill="#0a0a0a"/>
    </g>
    <g transform="translate(-125 -807)">
      <circle id="Ellipse_5-20" data-name="Ellipse 5" cx="4" cy="4" r="4" transform="translate(253 823)" fill="#0a0a0a"/>
    </g>
    <g transform="translate(-109 -807)">
      <circle id="Ellipse_5-21" data-name="Ellipse 5" cx="4" cy="4" r="4" transform="translate(253 823)" fill="#0a0a0a"/>
    </g>
    <g transform="translate(-93 -807)">
      <circle id="Ellipse_5-22" data-name="Ellipse 5" cx="4" cy="4" r="4" transform="translate(253 823)" fill="#0a0a0a"/>
    </g>
    <g transform="translate(-253 -791)">
      <circle id="Ellipse_5-23" data-name="Ellipse 5" cx="4" cy="4" r="4" transform="translate(253 823)" fill="#0a0a0a"/>
    </g>
    <g transform="translate(-237 -791)">
      <circle id="Ellipse_5-24" data-name="Ellipse 5" cx="4" cy="4" r="4" transform="translate(253 823)" fill="#0a0a0a"/>
    </g>
    <g transform="translate(-221 -791)">
      <circle id="Ellipse_5-25" data-name="Ellipse 5" cx="4" cy="4" r="4" transform="translate(253 823)" fill="#0a0a0a"/>
    </g>
    <g transform="translate(-205 -791)">
      <circle id="Ellipse_5-26" data-name="Ellipse 5" cx="4" cy="4" r="4" transform="translate(253 823)" fill="#0a0a0a"/>
    </g>
    <g transform="translate(-189 -791)">
      <circle id="Ellipse_5-27" data-name="Ellipse 5" cx="4" cy="4" r="4" transform="translate(253 823)" fill="#0a0a0a"/>
    </g>
    <g transform="translate(-173 -791)">
      <circle id="Ellipse_5-28" data-name="Ellipse 5" cx="4" cy="4" r="4" transform="translate(253 823)" fill="#0a0a0a"/>
    </g>
    <g transform="translate(-157 -791)">
      <circle id="Ellipse_5-29" data-name="Ellipse 5" cx="4" cy="4" r="4" transform="translate(253 823)" fill="#0a0a0a"/>
    </g>
    <g transform="translate(-141 -791)">
      <circle id="Ellipse_5-30" data-name="Ellipse 5" cx="4" cy="4" r="4" transform="translate(253 823)" fill="#0a0a0a"/>
    </g>
    <g transform="translate(-125 -791)">
      <circle id="Ellipse_5-31" data-name="Ellipse 5" cx="4" cy="4" r="4" transform="translate(253 823)" fill="#0a0a0a"/>
    </g>
    <g transform="translate(-109 -791)">
      <circle id="Ellipse_5-32" data-name="Ellipse 5" cx="4" cy="4" r="4" transform="translate(253 823)" fill="#0a0a0a"/>
    </g>
    <g transform="translate(-93 -791)">
      <circle id="Ellipse_5-33" data-name="Ellipse 5" cx="4" cy="4" r="4" transform="translate(253 823)" fill="#0a0a0a"/>
    </g>
    <g transform="translate(-253 -775)">
      <circle id="Ellipse_5-34" data-name="Ellipse 5" cx="4" cy="4" r="4" transform="translate(253 823)" fill="#0a0a0a"/>
    </g>
    <g transform="translate(-237 -775)">
      <circle id="Ellipse_5-35" data-name="Ellipse 5" cx="4" cy="4" r="4" transform="translate(253 823)" fill="#0a0a0a"/>
    </g>
    <g transform="translate(-221 -775)">
      <circle id="Ellipse_5-36" data-name="Ellipse 5" cx="4" cy="4" r="4" transform="translate(253 823)" fill="#0a0a0a"/>
    </g>
    <g transform="translate(-205 -775)">
      <circle id="Ellipse_5-37" data-name="Ellipse 5" cx="4" cy="4" r="4" transform="translate(253 823)" fill="#0a0a0a"/>
    </g>
    <g transform="translate(-189 -775)">
      <circle id="Ellipse_5-38" data-name="Ellipse 5" cx="4" cy="4" r="4" transform="translate(253 823)" fill="#0a0a0a"/>
    </g>
    <g transform="translate(-173 -775)">
      <circle id="Ellipse_5-39" data-name="Ellipse 5" cx="4" cy="4" r="4" transform="translate(253 823)" fill="#0a0a0a"/>
    </g>
    <g transform="translate(-157 -775)">
      <circle id="Ellipse_5-40" data-name="Ellipse 5" cx="4" cy="4" r="4" transform="translate(253 823)" fill="#0a0a0a"/>
    </g>
    <g transform="translate(-141 -775)">
      <circle id="Ellipse_5-41" data-name="Ellipse 5" cx="4" cy="4" r="4" transform="translate(253 823)" fill="#0a0a0a"/>
    </g>
    <g transform="translate(-125 -775)">
      <circle id="Ellipse_5-42" data-name="Ellipse 5" cx="4" cy="4" r="4" transform="translate(253 823)" fill="#0a0a0a"/>
    </g>
    <g transform="translate(-109 -775)">
      <circle id="Ellipse_5-43" data-name="Ellipse 5" cx="4" cy="4" r="4" transform="translate(253 823)" fill="#0a0a0a"/>
    </g>
    <g transform="translate(-93 -775)">
      <circle id="Ellipse_5-44" data-name="Ellipse 5" cx="4" cy="4" r="4" transform="translate(253 823)" fill="#0a0a0a"/>
    </g>
    <g transform="translate(-253 -759)">
      <circle id="Ellipse_5-45" data-name="Ellipse 5" cx="4" cy="4" r="4" transform="translate(253 823)" fill="#0a0a0a"/>
    </g>
    <g transform="translate(-237 -759)">
      <circle id="Ellipse_5-46" data-name="Ellipse 5" cx="4" cy="4" r="4" transform="translate(253 823)" fill="#0a0a0a"/>
    </g>
    <g transform="translate(-221 -759)">
      <circle id="Ellipse_5-47" data-name="Ellipse 5" cx="4" cy="4" r="4" transform="translate(253 823)" fill="#0a0a0a"/>
    </g>
    <g transform="translate(-205 -759)">
      <circle id="Ellipse_5-48" data-name="Ellipse 5" cx="4" cy="4" r="4" transform="translate(253 823)" fill="#0a0a0a"/>
    </g>
    <g transform="translate(-189 -759)">
      <circle id="Ellipse_5-49" data-name="Ellipse 5" cx="4" cy="4" r="4" transform="translate(253 823)" fill="#0a0a0a"/>
    </g>
    <g transform="translate(-173 -759)">
      <circle id="Ellipse_5-50" data-name="Ellipse 5" cx="4" cy="4" r="4" transform="translate(253 823)" fill="#0a0a0a"/>
    </g>
    <g transform="translate(-157 -759)">
      <circle id="Ellipse_5-51" data-name="Ellipse 5" cx="4" cy="4" r="4" transform="translate(253 823)" fill="#0a0a0a"/>
    </g>
    <g transform="translate(-141 -759)">
      <circle id="Ellipse_5-52" data-name="Ellipse 5" cx="4" cy="4" r="4" transform="translate(253 823)" fill="#0a0a0a"/>
    </g>
    <g transform="translate(-125 -759)">
      <circle id="Ellipse_5-53" data-name="Ellipse 5" cx="4" cy="4" r="4" transform="translate(253 823)" fill="#0a0a0a"/>
    </g>
    <g transform="translate(-109 -759)">
      <circle id="Ellipse_5-54" data-name="Ellipse 5" cx="4" cy="4" r="4" transform="translate(253 823)" fill="#0a0a0a"/>
    </g>
    <g transform="translate(-93 -759)">
      <circle id="Ellipse_5-55" data-name="Ellipse 5" cx="4" cy="4" r="4" transform="translate(253 823)" fill="#0a0a0a"/>
    </g>
    <g transform="translate(-253 -743)">
      <circle id="Ellipse_5-56" data-name="Ellipse 5" cx="4" cy="4" r="4" transform="translate(253 823)" fill="#0a0a0a"/>
    </g>
    <g transform="translate(-237 -743)">
      <circle id="Ellipse_5-57" data-name="Ellipse 5" cx="4" cy="4" r="4" transform="translate(253 823)" fill="#0a0a0a"/>
    </g>
    <g transform="translate(-221 -743)">
      <circle id="Ellipse_5-58" data-name="Ellipse 5" cx="4" cy="4" r="4" transform="translate(253 823)" fill="#0a0a0a"/>
    </g>
    <g transform="translate(-205 -743)">
      <circle id="Ellipse_5-59" data-name="Ellipse 5" cx="4" cy="4" r="4" transform="translate(253 823)" fill="#0a0a0a"/>
    </g>
    <g transform="translate(-189 -743)">
      <circle id="Ellipse_5-60" data-name="Ellipse 5" cx="4" cy="4" r="4" transform="translate(253 823)" fill="#0a0a0a"/>
    </g>
    <g transform="translate(-173 -743)">
      <circle id="Ellipse_5-61" data-name="Ellipse 5" cx="4" cy="4" r="4" transform="translate(253 823)" fill="#0a0a0a"/>
    </g>
    <g transform="translate(-157 -743)">
      <circle id="Ellipse_5-62" data-name="Ellipse 5" cx="4" cy="4" r="4" transform="translate(253 823)" fill="#0a0a0a"/>
    </g>
    <g transform="translate(-141 -743)">
      <circle id="Ellipse_5-63" data-name="Ellipse 5" cx="4" cy="4" r="4" transform="translate(253 823)" fill="#0a0a0a"/>
    </g>
    <g transform="translate(-125 -743)">
      <circle id="Ellipse_5-64" data-name="Ellipse 5" cx="4" cy="4" r="4" transform="translate(253 823)" fill="#0a0a0a"/>
    </g>
    <g transform="translate(-109 -743)">
      <circle id="Ellipse_5-65" data-name="Ellipse 5" cx="4" cy="4" r="4" transform="translate(253 823)" fill="#0a0a0a"/>
    </g>
    <g transform="translate(-93 -743)">
      <circle id="Ellipse_5-66" data-name="Ellipse 5" cx="4" cy="4" r="4" transform="translate(253 823)" fill="#0a0a0a"/>
    </g>
    <g transform="translate(-253 -727)">
      <circle id="Ellipse_5-67" data-name="Ellipse 5" cx="4" cy="4" r="4" transform="translate(253 823)" fill="#0a0a0a"/>
    </g>
    <g transform="translate(-237 -727)">
      <circle id="Ellipse_5-68" data-name="Ellipse 5" cx="4" cy="4" r="4" transform="translate(253 823)" fill="#0a0a0a"/>
    </g>
    <g transform="translate(-221 -727)">
      <circle id="Ellipse_5-69" data-name="Ellipse 5" cx="4" cy="4" r="4" transform="translate(253 823)" fill="#0a0a0a"/>
    </g>
    <g transform="translate(-205 -727)">
      <circle id="Ellipse_5-70" data-name="Ellipse 5" cx="4" cy="4" r="4" transform="translate(253 823)" fill="#0a0a0a"/>
    </g>
    <g transform="translate(-189 -727)">
      <circle id="Ellipse_5-71" data-name="Ellipse 5" cx="4" cy="4" r="4" transform="translate(253 823)" fill="#0a0a0a"/>
    </g>
    <g transform="translate(-173 -727)">
      <circle id="Ellipse_5-72" data-name="Ellipse 5" cx="4" cy="4" r="4" transform="translate(253 823)" fill="#0a0a0a"/>
    </g>
    <g transform="translate(-157 -727)">
      <circle id="Ellipse_5-73" data-name="Ellipse 5" cx="4" cy="4" r="4" transform="translate(253 823)" fill="#0a0a0a"/>
    </g>
    <g transform="translate(-141 -727)">
      <circle id="Ellipse_5-74" data-name="Ellipse 5" cx="4" cy="4" r="4" transform="translate(253 823)" fill="#0a0a0a"/>
    </g>
    <g transform="translate(-125 -727)">
      <circle id="Ellipse_5-75" data-name="Ellipse 5" cx="4" cy="4" r="4" transform="translate(253 823)" fill="#0a0a0a"/>
    </g>
    <g transform="translate(-109 -727)">
      <circle id="Ellipse_5-76" data-name="Ellipse 5" cx="4" cy="4" r="4" transform="translate(253 823)" fill="#0a0a0a"/>
    </g>
    <g transform="translate(-93 -727)">
      <circle id="Ellipse_5-77" data-name="Ellipse 5" cx="4" cy="4" r="4" transform="translate(253 823)" fill="#0a0a0a"/>
    </g>
    <g transform="translate(-253 -711)">
      <circle id="Ellipse_5-78" data-name="Ellipse 5" cx="4" cy="4" r="4" transform="translate(253 823)" fill="#0a0a0a"/>
    </g>
    <g transform="translate(-237 -711)">
      <circle id="Ellipse_5-79" data-name="Ellipse 5" cx="4" cy="4" r="4" transform="translate(253 823)" fill="#0a0a0a"/>
    </g>
    <g transform="translate(-221 -711)">
      <circle id="Ellipse_5-80" data-name="Ellipse 5" cx="4" cy="4" r="4" transform="translate(253 823)" fill="#0a0a0a"/>
    </g>
    <g transform="translate(-205 -711)">
      <circle id="Ellipse_5-81" data-name="Ellipse 5" cx="4" cy="4" r="4" transform="translate(253 823)" fill="#0a0a0a"/>
    </g>
    <g transform="translate(-189 -711)">
      <circle id="Ellipse_5-82" data-name="Ellipse 5" cx="4" cy="4" r="4" transform="translate(253 823)" fill="#0a0a0a"/>
    </g>
    <g transform="translate(-173 -711)">
      <circle id="Ellipse_5-83" data-name="Ellipse 5" cx="4" cy="4" r="4" transform="translate(253 823)" fill="#0a0a0a"/>
    </g>
    <g transform="translate(-157 -711)">
      <circle id="Ellipse_5-84" data-name="Ellipse 5" cx="4" cy="4" r="4" transform="translate(253 823)" fill="#0a0a0a"/>
    </g>
    <g transform="translate(-141 -711)">
      <circle id="Ellipse_5-85" data-name="Ellipse 5" cx="4" cy="4" r="4" transform="translate(253 823)" fill="#0a0a0a"/>
    </g>
    <g transform="translate(-125 -711)">
      <circle id="Ellipse_5-86" data-name="Ellipse 5" cx="4" cy="4" r="4" transform="translate(253 823)" fill="#0a0a0a"/>
    </g>
    <g transform="translate(-109 -711)">
      <circle id="Ellipse_5-87" data-name="Ellipse 5" cx="4" cy="4" r="4" transform="translate(253 823)" fill="#0a0a0a"/>
    </g>
    <g transform="translate(-93 -711)">
      <circle id="Ellipse_5-88" data-name="Ellipse 5" cx="4" cy="4" r="4" transform="translate(253 823)" fill="#0a0a0a"/>
    </g>
    <g transform="translate(-253 -695)">
      <circle id="Ellipse_5-89" data-name="Ellipse 5" cx="4" cy="4" r="4" transform="translate(253 823)" fill="#0a0a0a"/>
    </g>
    <g transform="translate(-237 -695)">
      <circle id="Ellipse_5-90" data-name="Ellipse 5" cx="4" cy="4" r="4" transform="translate(253 823)" fill="#0a0a0a"/>
    </g>
    <g transform="translate(-221 -695)">
      <circle id="Ellipse_5-91" data-name="Ellipse 5" cx="4" cy="4" r="4" transform="translate(253 823)" fill="#0a0a0a"/>
    </g>
    <g transform="translate(-205 -695)">
      <circle id="Ellipse_5-92" data-name="Ellipse 5" cx="4" cy="4" r="4" transform="translate(253 823)" fill="#0a0a0a"/>
    </g>
    <g transform="translate(-189 -695)">
      <circle id="Ellipse_5-93" data-name="Ellipse 5" cx="4" cy="4" r="4" transform="translate(253 823)" fill="#0a0a0a"/>
    </g>
    <g transform="translate(-173 -695)">
      <circle id="Ellipse_5-94" data-name="Ellipse 5" cx="4" cy="4" r="4" transform="translate(253 823)" fill="#0a0a0a"/>
    </g>
    <g transform="translate(-157 -695)">
      <circle id="Ellipse_5-95" data-name="Ellipse 5" cx="4" cy="4" r="4" transform="translate(253 823)" fill="#0a0a0a"/>
    </g>
    <g transform="translate(-141 -695)">
      <circle id="Ellipse_5-96" data-name="Ellipse 5" cx="4" cy="4" r="4" transform="translate(253 823)" fill="#0a0a0a"/>
    </g>
    <g transform="translate(-125 -695)">
      <circle id="Ellipse_5-97" data-name="Ellipse 5" cx="4" cy="4" r="4" transform="translate(253 823)" fill="#0a0a0a"/>
    </g>
    <g transform="translate(-109 -695)">
      <circle id="Ellipse_5-98" data-name="Ellipse 5" cx="4" cy="4" r="4" transform="translate(253 823)" fill="#0a0a0a"/>
    </g>
    <g transform="translate(-93 -695)">
      <circle id="Ellipse_5-99" data-name="Ellipse 5" cx="4" cy="4" r="4" transform="translate(253 823)" fill="#0a0a0a"/>
    </g>
    <g transform="translate(-253 -679)">
      <circle id="Ellipse_5-100" data-name="Ellipse 5" cx="4" cy="4" r="4" transform="translate(253 823)" fill="#0a0a0a"/>
    </g>
    <g transform="translate(-237 -679)">
      <circle id="Ellipse_5-101" data-name="Ellipse 5" cx="4" cy="4" r="4" transform="translate(253 823)" fill="#0a0a0a"/>
    </g>
    <g transform="translate(-221 -679)">
      <circle id="Ellipse_5-102" data-name="Ellipse 5" cx="4" cy="4" r="4" transform="translate(253 823)" fill="#0a0a0a"/>
    </g>
    <g transform="translate(-205 -679)">
      <circle id="Ellipse_5-103" data-name="Ellipse 5" cx="4" cy="4" r="4" transform="translate(253 823)" fill="#0a0a0a"/>
    </g>
    <g transform="translate(-189 -679)">
      <circle id="Ellipse_5-104" data-name="Ellipse 5" cx="4" cy="4" r="4" transform="translate(253 823)" fill="#0a0a0a"/>
    </g>
    <g transform="translate(-173 -679)">
      <circle id="Ellipse_5-105" data-name="Ellipse 5" cx="4" cy="4" r="4" transform="translate(253 823)" fill="#0a0a0a"/>
    </g>
    <g transform="translate(-157 -679)">
      <circle id="Ellipse_5-106" data-name="Ellipse 5" cx="4" cy="4" r="4" transform="translate(253 823)" fill="#0a0a0a"/>
    </g>
    <g transform="translate(-141 -679)">
      <circle id="Ellipse_5-107" data-name="Ellipse 5" cx="4" cy="4" r="4" transform="translate(253 823)" fill="#0a0a0a"/>
    </g>
    <g transform="translate(-125 -679)">
      <circle id="Ellipse_5-108" data-name="Ellipse 5" cx="4" cy="4" r="4" transform="translate(253 823)" fill="#0a0a0a"/>
    </g>
    <g transform="translate(-109 -679)">
      <circle id="Ellipse_5-109" data-name="Ellipse 5" cx="4" cy="4" r="4" transform="translate(253 823)" fill="#0a0a0a"/>
    </g>
    <g transform="translate(-93 -679)">
      <circle id="Ellipse_5-110" data-name="Ellipse 5" cx="4" cy="4" r="4" transform="translate(253 823)" fill="#0a0a0a"/>
    </g>
    <g transform="translate(-253 -663)">
      <circle id="Ellipse_5-111" data-name="Ellipse 5" cx="4" cy="4" r="4" transform="translate(253 823)" fill="#0a0a0a"/>
    </g>
    <g transform="translate(-237 -663)">
      <circle id="Ellipse_5-112" data-name="Ellipse 5" cx="4" cy="4" r="4" transform="translate(253 823)" fill="#0a0a0a"/>
    </g>
    <g transform="translate(-221 -663)">
      <circle id="Ellipse_5-113" data-name="Ellipse 5" cx="4" cy="4" r="4" transform="translate(253 823)" fill="#0a0a0a"/>
    </g>
    <g transform="translate(-205 -663)">
      <circle id="Ellipse_5-114" data-name="Ellipse 5" cx="4" cy="4" r="4" transform="translate(253 823)" fill="#0a0a0a"/>
    </g>
    <g transform="translate(-189 -663)">
      <circle id="Ellipse_5-115" data-name="Ellipse 5" cx="4" cy="4" r="4" transform="translate(253 823)" fill="#0a0a0a"/>
    </g>
    <g transform="translate(-173 -663)">
      <circle id="Ellipse_5-116" data-name="Ellipse 5" cx="4" cy="4" r="4" transform="translate(253 823)" fill="#0a0a0a"/>
    </g>
    <g transform="translate(-157 -663)">
      <circle id="Ellipse_5-117" data-name="Ellipse 5" cx="4" cy="4" r="4" transform="translate(253 823)" fill="#0a0a0a"/>
    </g>
    <g transform="translate(-141 -663)">
      <circle id="Ellipse_5-118" data-name="Ellipse 5" cx="4" cy="4" r="4" transform="translate(253 823)" fill="#0a0a0a"/>
    </g>
    <g transform="translate(-125 -663)">
      <circle id="Ellipse_5-119" data-name="Ellipse 5" cx="4" cy="4" r="4" transform="translate(253 823)" fill="#0a0a0a"/>
    </g>
    <g transform="translate(-109 -663)">
      <circle id="Ellipse_5-120" data-name="Ellipse 5" cx="4" cy="4" r="4" transform="translate(253 823)" fill="#0a0a0a"/>
    </g>
    <g transform="translate(-93 -663)">
      <circle id="Ellipse_5-121" data-name="Ellipse 5" cx="4" cy="4" r="4" transform="translate(253 823)" fill="#0a0a0a"/>
    </g>
  </g>
</svg>
