<svg xmlns="http://www.w3.org/2000/svg" width="100" height="100"
     viewBox="0 0 100 100">
    <defs>
        <clipPath id="clip-path">
            <rect id="Rectangle_12" data-name="Rectangle 12" width="45" height="45" transform="translate(878 1255)"
                  fill="#db4f4f" stroke="#707070" stroke-width="1"/>
        </clipPath>
    </defs>
    <g id="Group_10" data-name="Group 10" transform="translate(-850 -1227)">
        <rect id="Rectangle_11" data-name="Rectangle 11" width="100" height="100" rx="10"
              transform="translate(850 1227)" fill="#ffc9c9"/>
        <g id="Mask_Group_3" data-name="Mask Group 3" clip-path="url(#clip-path)">
            <g id="connector" transform="translate(878 1255)">
                <g id="Group_7" data-name="Group 7">
                    <g id="Group_6" data-name="Group 6">
                        <path id="Path_19" data-name="Path 19"
                              d="M40.208,17.707a4.8,4.8,0,0,0-4.6,3.459H32.811a10.346,10.346,0,0,0-2.081-5.01l1.978-1.978a4.8,4.8,0,1,0-1.885-1.888l-1.98,1.98a10.345,10.345,0,0,0-5.01-2.081V9.395a4.793,4.793,0,1,0-2.668,0v2.794a10.346,10.346,0,0,0-5.01,2.081l-1.98-1.98a4.8,4.8,0,0,0-.809-5.7h0a4.791,4.791,0,1,0-1.078,7.586l1.98,1.98a10.345,10.345,0,0,0-2.081,5.01H9.395a4.793,4.793,0,1,0,0,2.668h2.794a10.345,10.345,0,0,0,2.081,5.01l-1.98,1.98a4.793,4.793,0,1,0,1.886,1.887l1.98-1.98a10.345,10.345,0,0,0,5.01,2.081v2.794a4.793,4.793,0,1,0,2.668,0V32.811a10.346,10.346,0,0,0,5.01-2.081l1.98,1.98a4.783,4.783,0,1,0,1.885-1.888L30.73,28.844a10.345,10.345,0,0,0,2.081-5.01h2.794a4.792,4.792,0,1,0,4.6-6.127ZM33.519,8.477a2.125,2.125,0,1,1,0,3A2.111,2.111,0,0,1,33.519,8.477Zm-22.037,3a2.124,2.124,0,1,1,0-3A2.127,2.127,0,0,1,11.481,11.481ZM4.793,24.625A2.125,2.125,0,1,1,6.917,22.5,2.127,2.127,0,0,1,4.793,24.625Zm6.689,11.9a2.124,2.124,0,1,1,0-3A2.127,2.127,0,0,1,11.481,36.523ZM20.376,4.793A2.125,2.125,0,1,1,22.5,6.917,2.127,2.127,0,0,1,20.376,4.793Zm4.249,35.415A2.125,2.125,0,1,1,22.5,38.083,2.127,2.127,0,0,1,24.625,40.207ZM22.5,30.229A7.729,7.729,0,1,1,30.228,22.5,7.737,7.737,0,0,1,22.5,30.229Zm11.019,3.29a2.125,2.125,0,1,1,0,3A2.111,2.111,0,0,1,33.519,33.519Zm6.689-8.894A2.125,2.125,0,1,1,42.332,22.5,2.127,2.127,0,0,1,40.208,24.625Z"
                              fill="#db4f4f"/>
                    </g>
                </g>
                <g id="Group_9" data-name="Group 9">
                    <g id="Group_8" data-name="Group 8">
                        <path id="Path_20" data-name="Path 20"
                              d="M26.933,18.713a1.334,1.334,0,0,0-1.886-.064L21.136,22.3l-1.164-1.131a1.334,1.334,0,0,0-1.859,1.913L20.188,25.1a1.334,1.334,0,0,0,1.84.018L26.869,20.6A1.334,1.334,0,0,0,26.933,18.713Z"
                              fill="#db4f4f"/>
                    </g>
                </g>
            </g>
        </g>
    </g>
</svg>
