<svg xmlns="http://www.w3.org/2000/svg" width="109.016" height="106.287"
     viewBox="0 0 109.016 106.287">
    <defs>
        <style>
            .cls-1 {
            fill: none;
            opacity: 0.351;
            }

            .cls-2, .cls-3 {
            stroke: none;
            }

            .cls-3 {
            fill: #4fe398;
            }

            .cls-4 {
            filter: url(#Polygon_4);
            }
        </style>
        <filter id="Polygon_4" x="0" y="0" width="109.016" height="106.287" filterUnits="userSpaceOnUse">
            <feOffset input="SourceAlpha"/>
            <feGaussianBlur stdDeviation="6.5" result="blur"/>
            <feFlood flood-color="#30e2ab"/>
            <feComposite operator="in" in2="blur"/>
            <feComposite in="SourceGraphic"/>
        </filter>
    </defs>
    <g class="cls-4" transform="matrix(1, 0, 0, 1, 0, 0)">
        <g id="Polygon_4-2" data-name="Polygon 4" class="cls-1"
           transform="matrix(0.87, -0.48, 0.48, 0.87, 19.5, 45.68)">
            <path class="cls-2"
                  d="M21.8,9.056a6,6,0,0,1,10.405,0L48.836,38.011A6,6,0,0,1,43.634,47H10.366a6,6,0,0,1-5.2-8.989Z"/>
            <path class="cls-3"
                  d="M 27.0000114440918 12.04518127441406 L 27.0000114440918 12.04518127441406 L 10.36638641357422 41.00000381469727 L 43.63360977172852 41.00000381469727 L 27.02508544921875 12.04806900024414 C 27.02261161804199 12.04725646972656 27.01329231262207 12.04518127441406 27.0000114440918 12.04518127441406 M 27 6.045181274414062 C 29.02469253540039 6.045181274414062 31.04938507080078 7.048931121826172 32.20263671875 9.056430816650391 L 48.83624649047852 38.01125335693359 C 51.13410949707031 42.0112419128418 48.24664688110352 47.00000381469727 43.63360977172852 47.00000381469727 L 10.36638641357422 47.00000381469727 C 5.753349304199219 47.00000381469727 2.865886688232422 42.0112419128418 5.163749694824219 38.01125335693359 L 21.7973747253418 9.056430816650391 C 22.95061683654785 7.048931121826172 24.97530746459961 6.045181274414062 27 6.045181274414062 Z"/>
        </g>
    </g>
</svg>
