<?xml version="1.0" encoding="iso-8859-1"?>
<!-- Generator: Adobe Illustrator 24.0.0, SVG Export Plug-In . SVG Version: 6.00 Build 0)  -->
<svg version="1.1" id="Layer_1" xmlns="http://www.w3.org/2000/svg" x="0px"
     y="0px"
     viewBox="0 0 91 89.999" style="enable-background:new 0 0 91 89.999;" xml:space="preserve">
<circle id="Ellipse_1" style="opacity:0.08;fill:#FFFFFF;enable-background:new    ;" cx="5" cy="5" r="1"/>
    <circle id="Ellipse_1-2" style="opacity:0.08;fill:#FFFFFF;enable-background:new    ;" cx="14" cy="5" r="1"/>
    <circle id="Ellipse_1-3" style="opacity:0.08;fill:#FFFFFF;enable-background:new    ;" cx="23" cy="5" r="1"/>
    <circle id="Ellipse_1-4" style="opacity:0.08;fill:#FFFFFF;enable-background:new    ;" cx="32" cy="5" r="1"/>
    <circle id="Ellipse_1-5" style="opacity:0.08;fill:#FFFFFF;enable-background:new    ;" cx="41" cy="5" r="1"/>
    <circle id="Ellipse_1-6" style="opacity:0.08;fill:#FFFFFF;enable-background:new    ;" cx="50" cy="5" r="1"/>
    <circle id="Ellipse_1-7" style="opacity:0.08;fill:#FFFFFF;enable-background:new    ;" cx="59" cy="5" r="1"/>
    <circle id="Ellipse_1-8" style="opacity:0.08;fill:#FFFFFF;enable-background:new    ;" cx="68" cy="5" r="1"/>
    <circle id="Ellipse_1-9" style="opacity:0.08;fill:#FFFFFF;enable-background:new    ;" cx="77" cy="5" r="1"/>
    <circle id="Ellipse_1-10" style="opacity:0.08;fill:#FFFFFF;enable-background:new    ;" cx="86" cy="5" r="1"/>
    <circle id="Ellipse_1-11" style="opacity:0.08;fill:#FFFFFF;enable-background:new    ;" cx="5" cy="15" r="1"/>
    <circle id="Ellipse_1-12" style="opacity:0.08;fill:#FFFFFF;enable-background:new    ;" cx="14" cy="15" r="1"/>
    <circle id="Ellipse_1-13" style="opacity:0.08;fill:#FFFFFF;enable-background:new    ;" cx="23" cy="15" r="1"/>
    <circle id="Ellipse_1-14" style="opacity:0.08;fill:#FFFFFF;enable-background:new    ;" cx="32" cy="15" r="1"/>
    <circle id="Ellipse_1-15" style="opacity:0.08;fill:#FFFFFF;enable-background:new    ;" cx="41" cy="15" r="1"/>
    <circle id="Ellipse_1-16" style="opacity:0.08;fill:#FFFFFF;enable-background:new    ;" cx="50" cy="15" r="1"/>
    <circle id="Ellipse_1-17" style="opacity:0.08;fill:#FFFFFF;enable-background:new    ;" cx="59" cy="15" r="1"/>
    <circle id="Ellipse_1-18" style="opacity:0.08;fill:#FFFFFF;enable-background:new    ;" cx="68" cy="15" r="1"/>
    <circle id="Ellipse_1-19" style="opacity:0.08;fill:#FFFFFF;enable-background:new    ;" cx="77" cy="15" r="1"/>
    <circle id="Ellipse_1-20" style="opacity:0.08;fill:#FFFFFF;enable-background:new    ;" cx="86" cy="15" r="1"/>
    <circle id="Ellipse_1-21" style="opacity:0.08;fill:#FFFFFF;enable-background:new    ;" cx="5" cy="25" r="1"/>
    <circle id="Ellipse_1-22" style="opacity:0.08;fill:#FFFFFF;enable-background:new    ;" cx="14" cy="25" r="1"/>
    <circle id="Ellipse_1-23" style="opacity:0.08;fill:#FFFFFF;enable-background:new    ;" cx="23" cy="25" r="1"/>
    <circle id="Ellipse_1-24" style="opacity:0.08;fill:#FFFFFF;enable-background:new    ;" cx="32" cy="25" r="1"/>
    <circle id="Ellipse_1-25" style="opacity:0.08;fill:#FFFFFF;enable-background:new    ;" cx="41" cy="25" r="1"/>
    <circle id="Ellipse_1-26" style="opacity:0.08;fill:#FFFFFF;enable-background:new    ;" cx="50" cy="25" r="1"/>
    <circle id="Ellipse_1-27" style="opacity:0.08;fill:#FFFFFF;enable-background:new    ;" cx="59" cy="25" r="1"/>
    <circle id="Ellipse_1-28" style="opacity:0.08;fill:#FFFFFF;enable-background:new    ;" cx="68" cy="25" r="1"/>
    <circle id="Ellipse_1-29" style="opacity:0.08;fill:#FFFFFF;enable-background:new    ;" cx="77" cy="25" r="1"/>
    <circle id="Ellipse_1-30" style="opacity:0.08;fill:#FFFFFF;enable-background:new    ;" cx="86" cy="25" r="1"/>
    <circle id="Ellipse_1-31" style="opacity:0.08;fill:#FFFFFF;enable-background:new    ;" cx="5" cy="35" r="1"/>
    <circle id="Ellipse_1-32" style="opacity:0.08;fill:#FFFFFF;enable-background:new    ;" cx="14" cy="35" r="1"/>
    <circle id="Ellipse_1-33" style="opacity:0.08;fill:#FFFFFF;enable-background:new    ;" cx="23" cy="35" r="1"/>
    <circle id="Ellipse_1-34" style="opacity:0.08;fill:#FFFFFF;enable-background:new    ;" cx="32" cy="35" r="1"/>
    <circle id="Ellipse_1-35" style="opacity:0.08;fill:#FFFFFF;enable-background:new    ;" cx="41" cy="35" r="1"/>
    <circle id="Ellipse_1-36" style="opacity:0.08;fill:#FFFFFF;enable-background:new    ;" cx="50" cy="35" r="1"/>
    <circle id="Ellipse_1-37" style="opacity:0.08;fill:#FFFFFF;enable-background:new    ;" cx="59" cy="35" r="1"/>
    <circle id="Ellipse_1-38" style="opacity:0.08;fill:#FFFFFF;enable-background:new    ;" cx="68" cy="35" r="1"/>
    <circle id="Ellipse_1-39" style="opacity:0.08;fill:#FFFFFF;enable-background:new    ;" cx="77" cy="35" r="1"/>
    <circle id="Ellipse_1-40" style="opacity:0.08;fill:#FFFFFF;enable-background:new    ;" cx="86" cy="35" r="1"/>
    <circle id="Ellipse_1-41" style="opacity:0.08;fill:#FFFFFF;enable-background:new    ;" cx="5" cy="45" r="1"/>
    <circle id="Ellipse_1-42" style="opacity:0.08;fill:#FFFFFF;enable-background:new    ;" cx="14" cy="45" r="1"/>
    <circle id="Ellipse_1-43" style="opacity:0.08;fill:#FFFFFF;enable-background:new    ;" cx="23" cy="45" r="1"/>
    <circle id="Ellipse_1-44" style="opacity:0.08;fill:#FFFFFF;enable-background:new    ;" cx="32" cy="45" r="1"/>
    <circle id="Ellipse_1-45" style="opacity:0.08;fill:#FFFFFF;enable-background:new    ;" cx="41" cy="45" r="1"/>
    <circle id="Ellipse_1-46" style="opacity:0.08;fill:#FFFFFF;enable-background:new    ;" cx="50" cy="45" r="1"/>
    <circle id="Ellipse_1-47" style="opacity:0.08;fill:#FFFFFF;enable-background:new    ;" cx="59" cy="45" r="1"/>
    <circle id="Ellipse_1-48" style="opacity:0.08;fill:#FFFFFF;enable-background:new    ;" cx="68" cy="45" r="1"/>
    <circle id="Ellipse_1-49" style="opacity:0.08;fill:#FFFFFF;enable-background:new    ;" cx="77" cy="45" r="1"/>
    <circle id="Ellipse_1-50" style="opacity:0.08;fill:#FFFFFF;enable-background:new    ;" cx="86" cy="45" r="1"/>
    <circle id="Ellipse_1-51" style="opacity:0.08;fill:#FFFFFF;enable-background:new    ;" cx="5" cy="55" r="1"/>
    <circle id="Ellipse_1-52" style="opacity:0.08;fill:#FFFFFF;enable-background:new    ;" cx="14" cy="55" r="1"/>
    <circle id="Ellipse_1-53" style="opacity:0.08;fill:#FFFFFF;enable-background:new    ;" cx="23" cy="55" r="1"/>
    <circle id="Ellipse_1-54" style="opacity:0.08;fill:#FFFFFF;enable-background:new    ;" cx="32" cy="55" r="1"/>
    <circle id="Ellipse_1-55" style="opacity:0.08;fill:#FFFFFF;enable-background:new    ;" cx="41" cy="55" r="1"/>
    <circle id="Ellipse_1-56" style="opacity:0.08;fill:#FFFFFF;enable-background:new    ;" cx="50" cy="55" r="1"/>
    <circle id="Ellipse_1-57" style="opacity:0.08;fill:#FFFFFF;enable-background:new    ;" cx="59" cy="55" r="1"/>
    <circle id="Ellipse_1-58" style="opacity:0.08;fill:#FFFFFF;enable-background:new    ;" cx="68" cy="55" r="1"/>
    <circle id="Ellipse_1-59" style="opacity:0.08;fill:#FFFFFF;enable-background:new    ;" cx="77" cy="55" r="1"/>
    <circle id="Ellipse_1-60" style="opacity:0.08;fill:#FFFFFF;enable-background:new    ;" cx="86" cy="55" r="1"/>
    <circle id="Ellipse_1-61" style="opacity:0.08;fill:#FFFFFF;enable-background:new    ;" cx="5" cy="65" r="1"/>
    <circle id="Ellipse_1-62" style="opacity:0.08;fill:#FFFFFF;enable-background:new    ;" cx="14" cy="65" r="1"/>
    <circle id="Ellipse_1-63" style="opacity:0.08;fill:#FFFFFF;enable-background:new    ;" cx="23" cy="65" r="1"/>
    <circle id="Ellipse_1-64" style="opacity:0.08;fill:#FFFFFF;enable-background:new    ;" cx="32" cy="65" r="1"/>
    <circle id="Ellipse_1-65" style="opacity:0.08;fill:#FFFFFF;enable-background:new    ;" cx="41" cy="65" r="1"/>
    <circle id="Ellipse_1-66" style="opacity:0.08;fill:#FFFFFF;enable-background:new    ;" cx="50" cy="65" r="1"/>
    <circle id="Ellipse_1-67" style="opacity:0.08;fill:#FFFFFF;enable-background:new    ;" cx="59" cy="65" r="1"/>
    <circle id="Ellipse_1-68" style="opacity:0.08;fill:#FFFFFF;enable-background:new    ;" cx="68" cy="65" r="1"/>
    <circle id="Ellipse_1-69" style="opacity:0.08;fill:#FFFFFF;enable-background:new    ;" cx="77" cy="65" r="1"/>
    <circle id="Ellipse_1-70" style="opacity:0.08;fill:#FFFFFF;enable-background:new    ;" cx="86" cy="65" r="1"/>
    <circle id="Ellipse_1-71" style="opacity:0.08;fill:#FFFFFF;enable-background:new    ;" cx="5" cy="75" r="1"/>
    <circle id="Ellipse_1-72" style="opacity:0.08;fill:#FFFFFF;enable-background:new    ;" cx="14" cy="75" r="1"/>
    <circle id="Ellipse_1-73" style="opacity:0.08;fill:#FFFFFF;enable-background:new    ;" cx="23" cy="75" r="1"/>
    <circle id="Ellipse_1-74" style="opacity:0.08;fill:#FFFFFF;enable-background:new    ;" cx="32" cy="75" r="1"/>
    <circle id="Ellipse_1-75" style="opacity:0.08;fill:#FFFFFF;enable-background:new    ;" cx="41" cy="75" r="1"/>
    <circle id="Ellipse_1-76" style="opacity:0.08;fill:#FFFFFF;enable-background:new    ;" cx="50" cy="75" r="1"/>
    <circle id="Ellipse_1-77" style="opacity:0.08;fill:#FFFFFF;enable-background:new    ;" cx="59" cy="75" r="1"/>
    <circle id="Ellipse_1-78" style="opacity:0.08;fill:#FFFFFF;enable-background:new    ;" cx="68" cy="75" r="1"/>
    <circle id="Ellipse_1-79" style="opacity:0.08;fill:#FFFFFF;enable-background:new    ;" cx="77" cy="75" r="1"/>
    <circle id="Ellipse_1-80" style="opacity:0.08;fill:#FFFFFF;enable-background:new    ;" cx="86" cy="75" r="1"/>
    <circle id="Ellipse_1-81" style="opacity:0.08;fill:#FFFFFF;enable-background:new    ;" cx="5" cy="85" r="1"/>
    <circle id="Ellipse_1-82" style="opacity:0.08;fill:#FFFFFF;enable-background:new    ;" cx="14" cy="85" r="1"/>
    <circle id="Ellipse_1-83" style="opacity:0.08;fill:#FFFFFF;enable-background:new    ;" cx="23" cy="85" r="1"/>
    <circle id="Ellipse_1-84" style="opacity:0.08;fill:#FFFFFF;enable-background:new    ;" cx="32" cy="85" r="1"/>
    <circle id="Ellipse_1-85" style="opacity:0.08;fill:#FFFFFF;enable-background:new    ;" cx="41" cy="85" r="1"/>
    <circle id="Ellipse_1-86" style="opacity:0.08;fill:#FFFFFF;enable-background:new    ;" cx="50" cy="85" r="1"/>
    <circle id="Ellipse_1-87" style="opacity:0.08;fill:#FFFFFF;enable-background:new    ;" cx="59" cy="85" r="1"/>
    <circle id="Ellipse_1-88" style="opacity:0.08;fill:#FFFFFF;enable-background:new    ;" cx="68" cy="85" r="1"/>
    <circle id="Ellipse_1-89" style="opacity:0.08;fill:#FFFFFF;enable-background:new    ;" cx="77" cy="85" r="1"/>
    <circle id="Ellipse_1-90" style="opacity:0.08;fill:#FFFFFF;enable-background:new    ;" cx="86" cy="85" r="1"/>
    <rect x="82.811" y="111.011" transform="matrix(-1.836970e-16 1 -1 -1.836970e-16 196.0115 30.0115)"
          style="fill:#021E08;" width="0.378" height="4"/>
</svg>
