<svg xmlns="http://www.w3.org/2000/svg" width="16.667" height="16.667" viewBox="0 0 16.667 16.667">
  <defs>
    <style>
      .cls-1 {
        fill: #3c3c3c;
      }
    </style>
  </defs>
  <path id="Icon_material-my-location" data-name="Icon material-my-location" class="cls-1" d="M9.833,6.8a3.03,3.03,0,1,0,3.03,3.03A3.029,3.029,0,0,0,9.833,6.8Zm6.773,2.273a6.814,6.814,0,0,0-6.015-6.015V1.5H9.076V3.061A6.814,6.814,0,0,0,3.061,9.076H1.5v1.515H3.061a6.814,6.814,0,0,0,6.015,6.015v1.561h1.515V16.606a6.814,6.814,0,0,0,6.015-6.015h1.561V9.076ZM9.833,15.136a5.3,5.3,0,1,1,5.3-5.3A5.3,5.3,0,0,1,9.833,15.136Z" transform="translate(-1.5 -1.5)"/>
</svg>
