<svg xmlns="http://www.w3.org/2000/svg" width="21.875" height="25" viewBox="0 0 21.875 25">
  <defs>
    <style>
      .cls-1 {
        fill: #fff;
      }
    </style>
  </defs>
  <path id="Icon_awesome-discord" data-name="Icon awesome-discord" class="cls-1" d="M14.512,11.875a1.28,1.28,0,1,1-1.275-1.387A1.332,1.332,0,0,1,14.512,11.875ZM8.675,10.488a1.392,1.392,0,0,0,0,2.775A1.332,1.332,0,0,0,9.95,11.875,1.324,1.324,0,0,0,8.675,10.488Zm13.2-7.913V25c-3.149-2.783-2.142-1.862-5.8-5.263l.663,2.313H2.563A2.569,2.569,0,0,1,0,19.475V2.575A2.569,2.569,0,0,1,2.563,0h16.75A2.569,2.569,0,0,1,21.875,2.575Zm-3.562,11.85a16.739,16.739,0,0,0-1.8-7.287A6.181,6.181,0,0,0,13,5.825l-.175.2a8.319,8.319,0,0,1,3.113,1.588A10.621,10.621,0,0,0,6.6,7.25c-.463.213-.738.363-.738.363A8.433,8.433,0,0,1,9.15,5.975l-.125-.15A6.181,6.181,0,0,0,5.513,7.138a16.739,16.739,0,0,0-1.8,7.287,4.532,4.532,0,0,0,3.812,1.9s.463-.562.837-1.038a3.888,3.888,0,0,1-2.187-1.475c.184.129.487.3.512.313a9.112,9.112,0,0,0,7.8.438,7.153,7.153,0,0,0,1.438-.738,3.944,3.944,0,0,1-2.262,1.488c.375.475.825,1.013.825,1.013a4.569,4.569,0,0,0,3.825-1.9Z"/>
</svg>
