<svg xmlns="http://www.w3.org/2000/svg" width="21.887" height="21.883" viewBox="0 0 21.887 21.883">
    <defs>
        <style>
            .cls-1 {
            fill: #fff;
            }
        </style>
    </defs>
    <path id="Icon_awesome-instagram" data-name="Icon awesome-instagram" class="cls-1"
          d="M10.942,6.885a5.61,5.61,0,1,0,5.61,5.61A5.6,5.6,0,0,0,10.942,6.885Zm0,9.258A3.647,3.647,0,1,1,14.59,12.5,3.654,3.654,0,0,1,10.942,16.143Zm7.148-9.487a1.309,1.309,0,1,1-1.309-1.309A1.306,1.306,0,0,1,18.091,6.655Zm3.716,1.328A6.476,6.476,0,0,0,20.039,3.4a6.518,6.518,0,0,0-4.585-1.768c-1.807-.1-7.222-.1-9.028,0A6.509,6.509,0,0,0,1.841,3.394,6.5,6.5,0,0,0,.073,7.979c-.1,1.807-.1,7.222,0,9.028a6.476,6.476,0,0,0,1.768,4.585,6.527,6.527,0,0,0,4.585,1.768c1.807.1,7.222.1,9.028,0a6.476,6.476,0,0,0,4.585-1.768,6.518,6.518,0,0,0,1.768-4.585C21.909,15.2,21.909,9.79,21.807,7.983ZM19.473,18.945a3.693,3.693,0,0,1-2.08,2.08c-1.44.571-4.858.439-6.45.439s-5.015.127-6.45-.439a3.693,3.693,0,0,1-2.08-2.08c-.571-1.44-.439-4.858-.439-6.45s-.127-5.015.439-6.45a3.693,3.693,0,0,1,2.08-2.08c1.44-.571,4.858-.439,6.45-.439s5.015-.127,6.45.439a3.693,3.693,0,0,1,2.08,2.08c.571,1.44.439,4.858.439,6.45S20.044,17.51,19.473,18.945Z"
          transform="translate(0.004 -1.554)"/>
</svg>
