<svg xmlns="http://www.w3.org/2000/svg" width="1359.108" height="644.54"
     viewBox="0 0 1359.108 644.54">
    <defs>
        <filter id="Subtraction_3" x="709.05" y="363.49" width="89" height="89" filterUnits="userSpaceOnUse">
            <feOffset dy="3" input="SourceAlpha"/>
            <feGaussianBlur stdDeviation="5" result="blur"/>
            <feFlood flood-color="#fff"/>
            <feComposite operator="in" in2="blur"/>
            <feComposite in="SourceGraphic"/>
        </filter>
    </defs>
    <g id="Group_182" data-name="Group 182" transform="translate(-32.95 -126.51)">
        <g id="Ellipse_2" data-name="Ellipse 2" transform="translate(1094 661)" fill="none"
           stroke="rgba(255,255,255,0.25)" stroke-width="9">
            <circle cx="23.5" cy="23.5" r="23.5" stroke="none"/>
            <circle cx="23.5" cy="23.5" r="19" fill="none"/>
        </g>
        <g transform="matrix(1, 0, 0, 1, 32.95, 126.51)" filter="url(#Subtraction_3)">
            <path id="Subtraction_3-2" data-name="Subtraction 3"
                  d="M23.5,47A23.506,23.506,0,0,1,14.353,1.847,23.506,23.506,0,0,1,32.647,45.153,23.353,23.353,0,0,1,23.5,47Zm0-37a13.5,13.5,0,1,0,9.546,3.954A13.412,13.412,0,0,0,23.5,10Z"
                  transform="translate(730.05 381.49)" fill="#fff" opacity="0.298"/>
        </g>
        <g id="Polygon_1" data-name="Polygon 1" transform="matrix(0.875, -0.485, 0.485, 0.875, 132.992, 458.036)"
           fill="none" opacity="0.239">
            <path d="M21.8,9.056a6,6,0,0,1,10.405,0L48.836,38.011A6,6,0,0,1,43.634,47H10.366a6,6,0,0,1-5.2-8.989Z"
                  stroke="none"/>
            <path d="M 27.0000114440918 12.04518127441406 L 27.0000114440918 12.04518127441406 L 10.36638641357422 41.00000381469727 L 43.63360977172852 41.00000381469727 L 27.02508544921875 12.04806900024414 C 27.02261161804199 12.04725646972656 27.01329231262207 12.04518127441406 27.0000114440918 12.04518127441406 M 27 6.045181274414062 C 29.02469253540039 6.045181274414062 31.04938507080078 7.048931121826172 32.20263671875 9.056430816650391 L 48.83624649047852 38.01125335693359 C 51.13410949707031 42.0112419128418 48.24664688110352 47.00000381469727 43.63360977172852 47.00000381469727 L 10.36638641357422 47.00000381469727 C 5.753349304199219 47.00000381469727 2.865886688232422 42.0112419128418 5.163749694824219 38.01125335693359 L 21.7973747253418 9.056430816650391 C 22.95061683654785 7.048931121826172 24.97530746459961 6.045181274414062 27 6.045181274414062 Z"
                  stroke="none" fill="#fff"/>
        </g>
        <g id="Polygon_2" data-name="Polygon 2" transform="translate(1013.193 126.51) rotate(25)" fill="none">
            <path d="M15.163,7.562a5,5,0,0,1,8.675,0l10.868,18.95A5,5,0,0,1,30.368,34H8.632a5,5,0,0,1-4.337-7.488Z"
                  stroke="none"/>
            <path d="M 19.5 9.050004959106445 C 19.23574066162109 9.050004959106445 18.87072944641113 9.137184143066406 18.63253974914551 9.552494049072266 L 7.76416015625 28.50249481201172 C 7.527149200439453 28.91574478149414 7.634510040283203 29.27371406555176 7.76630973815918 29.50124359130859 C 7.898109436035156 29.72877502441406 8.155220031738281 30.00000381469727 8.631620407104492 30.00000381469727 L 30.36837959289551 30.00000381469727 C 30.84477996826172 30.00000381469727 31.10189056396484 29.72877502441406 31.23369026184082 29.50124359130859 C 31.3654899597168 29.27371406555176 31.47285079956055 28.91574478149414 31.23583030700684 28.50249481201172 L 20.36745071411133 9.552494049072266 C 20.12925910949707 9.137184143066406 19.76425933837891 9.050004959106445 19.5 9.050004959106445 M 19.49999809265137 5.050003051757812 C 21.18832206726074 5.050003051757812 22.87664413452148 5.887485504150391 23.8372802734375 7.562444686889648 L 34.70565795898438 26.51244354248047 C 36.6174201965332 29.84575271606445 34.21100997924805 34.00000381469727 30.36837959289551 34.00000381469727 L 8.631620407104492 34.00000381469727 C 4.788990020751953 34.00000381469727 2.382579803466797 29.84575271606445 4.294330596923828 26.51244354248047 L 15.16271018981934 7.562444686889648 C 16.12335014343262 5.887485504150391 17.81167411804199 5.050003051757812 19.49999809265137 5.050003051757812 Z"
                  stroke="none" fill="rgba(255,255,255,0.2)"/>
        </g>
        <g id="Rectangle_4" data-name="Rectangle 4" transform="translate(51.385 718.512) rotate(13)" fill="none"
           stroke="#fff" stroke-width="5" opacity="0.69">
            <rect width="35" height="35" rx="8" stroke="none"/>
            <rect x="2.5" y="2.5" width="30" height="30" rx="5.5" fill="none"/>
        </g>
        <g id="Rectangle_5" data-name="Rectangle 5" transform="translate(73.206 208.778) rotate(-34)" fill="none"
           stroke="#fff" stroke-width="5" opacity="0.242">
            <rect width="35" height="35" rx="8" stroke="none"/>
            <rect x="2.5" y="2.5" width="30" height="30" rx="5.5" fill="none"/>
        </g>
        <g id="Rectangle_6" data-name="Rectangle 6" transform="matrix(0.788, -0.616, 0.616, 0.788, 1317.936, 365.484)"
           fill="none" stroke="#fff" stroke-width="5" opacity="0.69">
            <rect width="44" height="44" rx="8" stroke="none"/>
            <rect x="2.5" y="2.5" width="39" height="39" rx="5.5" fill="none"/>
        </g>
    </g>
</svg>
