<svg xmlns="http://www.w3.org/2000/svg" width="1364.999" height="155" viewBox="0 0 1364.999 155">
    <path id="Intersection_1" data-name="Intersection 1"
          d="M0,155V0H1365V15.114c-2.328,1.357-12.574,7.232-29.062,15.34-11.077,5.447-22.792,10.839-34.819,16.025-15.034,6.483-30.605,12.663-46.281,18.369a859.418,859.418,0,0,1-121.26,34.394c-24.083,4.927-48.352,8.74-72.133,11.334a721.534,721.534,0,0,1-77.907,4.3c-101.311,0-178.954-14.278-261.155-29.393l-.014,0C676.58,77.058,629.233,68.352,575.538,61.7c-29.01-3.595-57.128-6.264-85.959-8.159-15.67-1.03-31.729-1.833-47.731-2.388-16.827-.581-34.159-.908-51.512-.968-1.237,0-2.446-.006-3.6-.006-32.014,0-63.549,1.528-93.728,4.543A809.393,809.393,0,0,0,212.961,66.7c-43.255,8.769-83.806,21-120.528,36.345-14.425,6.028-28.288,12.559-41.2,19.41-10.334,5.483-20.084,11.18-28.981,16.933A228.964,228.964,0,0,0,.565,155Z"
          transform="translate(1364.999 155) rotate(180)" fill="#eff6ff"/>
</svg>
