<svg xmlns="http://www.w3.org/2000/svg" width="308" height="280"
     viewBox="0 0 308 280">
    <defs>
        <style>
            .cls-1 {
            fill: none;
            }

            .cls-2 {
            clip-path: url(#clip-path);
            }

            .cls-3 {
            fill: #e0e0e0;
            }
        </style>
        <clipPath id="clip-path">
            <rect class="cls-1" width="308" height="280"/>
        </clipPath>
    </defs>
    <g id="Repeat_Grid_4" data-name="Repeat Grid 4" class="cls-2">
        <g transform="translate(-368 -2293)">
            <circle id="Ellipse_10" data-name="Ellipse 10" class="cls-3" cx="2" cy="2" r="2"
                    transform="translate(368 2293)"/>
        </g>
        <g transform="translate(-344 -2293)">
            <circle id="Ellipse_10-2" data-name="Ellipse 10" class="cls-3" cx="2" cy="2" r="2"
                    transform="translate(368 2293)"/>
        </g>
        <g transform="translate(-320 -2293)">
            <circle id="Ellipse_10-3" data-name="Ellipse 10" class="cls-3" cx="2" cy="2" r="2"
                    transform="translate(368 2293)"/>
        </g>
        <g transform="translate(-296 -2293)">
            <circle id="Ellipse_10-4" data-name="Ellipse 10" class="cls-3" cx="2" cy="2" r="2"
                    transform="translate(368 2293)"/>
        </g>
        <g transform="translate(-272 -2293)">
            <circle id="Ellipse_10-5" data-name="Ellipse 10" class="cls-3" cx="2" cy="2" r="2"
                    transform="translate(368 2293)"/>
        </g>
        <g transform="translate(-248 -2293)">
            <circle id="Ellipse_10-6" data-name="Ellipse 10" class="cls-3" cx="2" cy="2" r="2"
                    transform="translate(368 2293)"/>
        </g>
        <g transform="translate(-224 -2293)">
            <circle id="Ellipse_10-7" data-name="Ellipse 10" class="cls-3" cx="2" cy="2" r="2"
                    transform="translate(368 2293)"/>
        </g>
        <g transform="translate(-200 -2293)">
            <circle id="Ellipse_10-8" data-name="Ellipse 10" class="cls-3" cx="2" cy="2" r="2"
                    transform="translate(368 2293)"/>
        </g>
        <g transform="translate(-176 -2293)">
            <circle id="Ellipse_10-9" data-name="Ellipse 10" class="cls-3" cx="2" cy="2" r="2"
                    transform="translate(368 2293)"/>
        </g>
        <g transform="translate(-152 -2293)">
            <circle id="Ellipse_10-10" data-name="Ellipse 10" class="cls-3" cx="2" cy="2" r="2"
                    transform="translate(368 2293)"/>
        </g>
        <g transform="translate(-128 -2293)">
            <circle id="Ellipse_10-11" data-name="Ellipse 10" class="cls-3" cx="2" cy="2" r="2"
                    transform="translate(368 2293)"/>
        </g>
        <g transform="translate(-104 -2293)">
            <circle id="Ellipse_10-12" data-name="Ellipse 10" class="cls-3" cx="2" cy="2" r="2"
                    transform="translate(368 2293)"/>
        </g>
        <g transform="translate(-80 -2293)">
            <circle id="Ellipse_10-13" data-name="Ellipse 10" class="cls-3" cx="2" cy="2" r="2"
                    transform="translate(368 2293)"/>
        </g>
        <g transform="translate(-368 -2269)">
            <circle id="Ellipse_10-14" data-name="Ellipse 10" class="cls-3" cx="2" cy="2" r="2"
                    transform="translate(368 2293)"/>
        </g>
        <g transform="translate(-344 -2269)">
            <circle id="Ellipse_10-15" data-name="Ellipse 10" class="cls-3" cx="2" cy="2" r="2"
                    transform="translate(368 2293)"/>
        </g>
        <g transform="translate(-320 -2269)">
            <circle id="Ellipse_10-16" data-name="Ellipse 10" class="cls-3" cx="2" cy="2" r="2"
                    transform="translate(368 2293)"/>
        </g>
        <g transform="translate(-296 -2269)">
            <circle id="Ellipse_10-17" data-name="Ellipse 10" class="cls-3" cx="2" cy="2" r="2"
                    transform="translate(368 2293)"/>
        </g>
        <g transform="translate(-272 -2269)">
            <circle id="Ellipse_10-18" data-name="Ellipse 10" class="cls-3" cx="2" cy="2" r="2"
                    transform="translate(368 2293)"/>
        </g>
        <g transform="translate(-248 -2269)">
            <circle id="Ellipse_10-19" data-name="Ellipse 10" class="cls-3" cx="2" cy="2" r="2"
                    transform="translate(368 2293)"/>
        </g>
        <g transform="translate(-224 -2269)">
            <circle id="Ellipse_10-20" data-name="Ellipse 10" class="cls-3" cx="2" cy="2" r="2"
                    transform="translate(368 2293)"/>
        </g>
        <g transform="translate(-200 -2269)">
            <circle id="Ellipse_10-21" data-name="Ellipse 10" class="cls-3" cx="2" cy="2" r="2"
                    transform="translate(368 2293)"/>
        </g>
        <g transform="translate(-176 -2269)">
            <circle id="Ellipse_10-22" data-name="Ellipse 10" class="cls-3" cx="2" cy="2" r="2"
                    transform="translate(368 2293)"/>
        </g>
        <g transform="translate(-152 -2269)">
            <circle id="Ellipse_10-23" data-name="Ellipse 10" class="cls-3" cx="2" cy="2" r="2"
                    transform="translate(368 2293)"/>
        </g>
        <g transform="translate(-128 -2269)">
            <circle id="Ellipse_10-24" data-name="Ellipse 10" class="cls-3" cx="2" cy="2" r="2"
                    transform="translate(368 2293)"/>
        </g>
        <g transform="translate(-104 -2269)">
            <circle id="Ellipse_10-25" data-name="Ellipse 10" class="cls-3" cx="2" cy="2" r="2"
                    transform="translate(368 2293)"/>
        </g>
        <g transform="translate(-80 -2269)">
            <circle id="Ellipse_10-26" data-name="Ellipse 10" class="cls-3" cx="2" cy="2" r="2"
                    transform="translate(368 2293)"/>
        </g>
        <g transform="translate(-368 -2245)">
            <circle id="Ellipse_10-27" data-name="Ellipse 10" class="cls-3" cx="2" cy="2" r="2"
                    transform="translate(368 2293)"/>
        </g>
        <g transform="translate(-344 -2245)">
            <circle id="Ellipse_10-28" data-name="Ellipse 10" class="cls-3" cx="2" cy="2" r="2"
                    transform="translate(368 2293)"/>
        </g>
        <g transform="translate(-320 -2245)">
            <circle id="Ellipse_10-29" data-name="Ellipse 10" class="cls-3" cx="2" cy="2" r="2"
                    transform="translate(368 2293)"/>
        </g>
        <g transform="translate(-296 -2245)">
            <circle id="Ellipse_10-30" data-name="Ellipse 10" class="cls-3" cx="2" cy="2" r="2"
                    transform="translate(368 2293)"/>
        </g>
        <g transform="translate(-272 -2245)">
            <circle id="Ellipse_10-31" data-name="Ellipse 10" class="cls-3" cx="2" cy="2" r="2"
                    transform="translate(368 2293)"/>
        </g>
        <g transform="translate(-248 -2245)">
            <circle id="Ellipse_10-32" data-name="Ellipse 10" class="cls-3" cx="2" cy="2" r="2"
                    transform="translate(368 2293)"/>
        </g>
        <g transform="translate(-224 -2245)">
            <circle id="Ellipse_10-33" data-name="Ellipse 10" class="cls-3" cx="2" cy="2" r="2"
                    transform="translate(368 2293)"/>
        </g>
        <g transform="translate(-200 -2245)">
            <circle id="Ellipse_10-34" data-name="Ellipse 10" class="cls-3" cx="2" cy="2" r="2"
                    transform="translate(368 2293)"/>
        </g>
        <g transform="translate(-176 -2245)">
            <circle id="Ellipse_10-35" data-name="Ellipse 10" class="cls-3" cx="2" cy="2" r="2"
                    transform="translate(368 2293)"/>
        </g>
        <g transform="translate(-152 -2245)">
            <circle id="Ellipse_10-36" data-name="Ellipse 10" class="cls-3" cx="2" cy="2" r="2"
                    transform="translate(368 2293)"/>
        </g>
        <g transform="translate(-128 -2245)">
            <circle id="Ellipse_10-37" data-name="Ellipse 10" class="cls-3" cx="2" cy="2" r="2"
                    transform="translate(368 2293)"/>
        </g>
        <g transform="translate(-104 -2245)">
            <circle id="Ellipse_10-38" data-name="Ellipse 10" class="cls-3" cx="2" cy="2" r="2"
                    transform="translate(368 2293)"/>
        </g>
        <g transform="translate(-80 -2245)">
            <circle id="Ellipse_10-39" data-name="Ellipse 10" class="cls-3" cx="2" cy="2" r="2"
                    transform="translate(368 2293)"/>
        </g>
        <g transform="translate(-368 -2221)">
            <circle id="Ellipse_10-40" data-name="Ellipse 10" class="cls-3" cx="2" cy="2" r="2"
                    transform="translate(368 2293)"/>
        </g>
        <g transform="translate(-344 -2221)">
            <circle id="Ellipse_10-41" data-name="Ellipse 10" class="cls-3" cx="2" cy="2" r="2"
                    transform="translate(368 2293)"/>
        </g>
        <g transform="translate(-320 -2221)">
            <circle id="Ellipse_10-42" data-name="Ellipse 10" class="cls-3" cx="2" cy="2" r="2"
                    transform="translate(368 2293)"/>
        </g>
        <g transform="translate(-296 -2221)">
            <circle id="Ellipse_10-43" data-name="Ellipse 10" class="cls-3" cx="2" cy="2" r="2"
                    transform="translate(368 2293)"/>
        </g>
        <g transform="translate(-272 -2221)">
            <circle id="Ellipse_10-44" data-name="Ellipse 10" class="cls-3" cx="2" cy="2" r="2"
                    transform="translate(368 2293)"/>
        </g>
        <g transform="translate(-248 -2221)">
            <circle id="Ellipse_10-45" data-name="Ellipse 10" class="cls-3" cx="2" cy="2" r="2"
                    transform="translate(368 2293)"/>
        </g>
        <g transform="translate(-224 -2221)">
            <circle id="Ellipse_10-46" data-name="Ellipse 10" class="cls-3" cx="2" cy="2" r="2"
                    transform="translate(368 2293)"/>
        </g>
        <g transform="translate(-200 -2221)">
            <circle id="Ellipse_10-47" data-name="Ellipse 10" class="cls-3" cx="2" cy="2" r="2"
                    transform="translate(368 2293)"/>
        </g>
        <g transform="translate(-176 -2221)">
            <circle id="Ellipse_10-48" data-name="Ellipse 10" class="cls-3" cx="2" cy="2" r="2"
                    transform="translate(368 2293)"/>
        </g>
        <g transform="translate(-152 -2221)">
            <circle id="Ellipse_10-49" data-name="Ellipse 10" class="cls-3" cx="2" cy="2" r="2"
                    transform="translate(368 2293)"/>
        </g>
        <g transform="translate(-128 -2221)">
            <circle id="Ellipse_10-50" data-name="Ellipse 10" class="cls-3" cx="2" cy="2" r="2"
                    transform="translate(368 2293)"/>
        </g>
        <g transform="translate(-104 -2221)">
            <circle id="Ellipse_10-51" data-name="Ellipse 10" class="cls-3" cx="2" cy="2" r="2"
                    transform="translate(368 2293)"/>
        </g>
        <g transform="translate(-80 -2221)">
            <circle id="Ellipse_10-52" data-name="Ellipse 10" class="cls-3" cx="2" cy="2" r="2"
                    transform="translate(368 2293)"/>
        </g>
        <g transform="translate(-368 -2197)">
            <circle id="Ellipse_10-53" data-name="Ellipse 10" class="cls-3" cx="2" cy="2" r="2"
                    transform="translate(368 2293)"/>
        </g>
        <g transform="translate(-344 -2197)">
            <circle id="Ellipse_10-54" data-name="Ellipse 10" class="cls-3" cx="2" cy="2" r="2"
                    transform="translate(368 2293)"/>
        </g>
        <g transform="translate(-320 -2197)">
            <circle id="Ellipse_10-55" data-name="Ellipse 10" class="cls-3" cx="2" cy="2" r="2"
                    transform="translate(368 2293)"/>
        </g>
        <g transform="translate(-296 -2197)">
            <circle id="Ellipse_10-56" data-name="Ellipse 10" class="cls-3" cx="2" cy="2" r="2"
                    transform="translate(368 2293)"/>
        </g>
        <g transform="translate(-272 -2197)">
            <circle id="Ellipse_10-57" data-name="Ellipse 10" class="cls-3" cx="2" cy="2" r="2"
                    transform="translate(368 2293)"/>
        </g>
        <g transform="translate(-248 -2197)">
            <circle id="Ellipse_10-58" data-name="Ellipse 10" class="cls-3" cx="2" cy="2" r="2"
                    transform="translate(368 2293)"/>
        </g>
        <g transform="translate(-224 -2197)">
            <circle id="Ellipse_10-59" data-name="Ellipse 10" class="cls-3" cx="2" cy="2" r="2"
                    transform="translate(368 2293)"/>
        </g>
        <g transform="translate(-200 -2197)">
            <circle id="Ellipse_10-60" data-name="Ellipse 10" class="cls-3" cx="2" cy="2" r="2"
                    transform="translate(368 2293)"/>
        </g>
        <g transform="translate(-176 -2197)">
            <circle id="Ellipse_10-61" data-name="Ellipse 10" class="cls-3" cx="2" cy="2" r="2"
                    transform="translate(368 2293)"/>
        </g>
        <g transform="translate(-152 -2197)">
            <circle id="Ellipse_10-62" data-name="Ellipse 10" class="cls-3" cx="2" cy="2" r="2"
                    transform="translate(368 2293)"/>
        </g>
        <g transform="translate(-128 -2197)">
            <circle id="Ellipse_10-63" data-name="Ellipse 10" class="cls-3" cx="2" cy="2" r="2"
                    transform="translate(368 2293)"/>
        </g>
        <g transform="translate(-104 -2197)">
            <circle id="Ellipse_10-64" data-name="Ellipse 10" class="cls-3" cx="2" cy="2" r="2"
                    transform="translate(368 2293)"/>
        </g>
        <g transform="translate(-80 -2197)">
            <circle id="Ellipse_10-65" data-name="Ellipse 10" class="cls-3" cx="2" cy="2" r="2"
                    transform="translate(368 2293)"/>
        </g>
        <g transform="translate(-368 -2173)">
            <circle id="Ellipse_10-66" data-name="Ellipse 10" class="cls-3" cx="2" cy="2" r="2"
                    transform="translate(368 2293)"/>
        </g>
        <g transform="translate(-344 -2173)">
            <circle id="Ellipse_10-67" data-name="Ellipse 10" class="cls-3" cx="2" cy="2" r="2"
                    transform="translate(368 2293)"/>
        </g>
        <g transform="translate(-320 -2173)">
            <circle id="Ellipse_10-68" data-name="Ellipse 10" class="cls-3" cx="2" cy="2" r="2"
                    transform="translate(368 2293)"/>
        </g>
        <g transform="translate(-296 -2173)">
            <circle id="Ellipse_10-69" data-name="Ellipse 10" class="cls-3" cx="2" cy="2" r="2"
                    transform="translate(368 2293)"/>
        </g>
        <g transform="translate(-272 -2173)">
            <circle id="Ellipse_10-70" data-name="Ellipse 10" class="cls-3" cx="2" cy="2" r="2"
                    transform="translate(368 2293)"/>
        </g>
        <g transform="translate(-248 -2173)">
            <circle id="Ellipse_10-71" data-name="Ellipse 10" class="cls-3" cx="2" cy="2" r="2"
                    transform="translate(368 2293)"/>
        </g>
        <g transform="translate(-224 -2173)">
            <circle id="Ellipse_10-72" data-name="Ellipse 10" class="cls-3" cx="2" cy="2" r="2"
                    transform="translate(368 2293)"/>
        </g>
        <g transform="translate(-200 -2173)">
            <circle id="Ellipse_10-73" data-name="Ellipse 10" class="cls-3" cx="2" cy="2" r="2"
                    transform="translate(368 2293)"/>
        </g>
        <g transform="translate(-176 -2173)">
            <circle id="Ellipse_10-74" data-name="Ellipse 10" class="cls-3" cx="2" cy="2" r="2"
                    transform="translate(368 2293)"/>
        </g>
        <g transform="translate(-152 -2173)">
            <circle id="Ellipse_10-75" data-name="Ellipse 10" class="cls-3" cx="2" cy="2" r="2"
                    transform="translate(368 2293)"/>
        </g>
        <g transform="translate(-128 -2173)">
            <circle id="Ellipse_10-76" data-name="Ellipse 10" class="cls-3" cx="2" cy="2" r="2"
                    transform="translate(368 2293)"/>
        </g>
        <g transform="translate(-104 -2173)">
            <circle id="Ellipse_10-77" data-name="Ellipse 10" class="cls-3" cx="2" cy="2" r="2"
                    transform="translate(368 2293)"/>
        </g>
        <g transform="translate(-80 -2173)">
            <circle id="Ellipse_10-78" data-name="Ellipse 10" class="cls-3" cx="2" cy="2" r="2"
                    transform="translate(368 2293)"/>
        </g>
        <g transform="translate(-368 -2149)">
            <circle id="Ellipse_10-79" data-name="Ellipse 10" class="cls-3" cx="2" cy="2" r="2"
                    transform="translate(368 2293)"/>
        </g>
        <g transform="translate(-344 -2149)">
            <circle id="Ellipse_10-80" data-name="Ellipse 10" class="cls-3" cx="2" cy="2" r="2"
                    transform="translate(368 2293)"/>
        </g>
        <g transform="translate(-320 -2149)">
            <circle id="Ellipse_10-81" data-name="Ellipse 10" class="cls-3" cx="2" cy="2" r="2"
                    transform="translate(368 2293)"/>
        </g>
        <g transform="translate(-296 -2149)">
            <circle id="Ellipse_10-82" data-name="Ellipse 10" class="cls-3" cx="2" cy="2" r="2"
                    transform="translate(368 2293)"/>
        </g>
        <g transform="translate(-272 -2149)">
            <circle id="Ellipse_10-83" data-name="Ellipse 10" class="cls-3" cx="2" cy="2" r="2"
                    transform="translate(368 2293)"/>
        </g>
        <g transform="translate(-248 -2149)">
            <circle id="Ellipse_10-84" data-name="Ellipse 10" class="cls-3" cx="2" cy="2" r="2"
                    transform="translate(368 2293)"/>
        </g>
        <g transform="translate(-224 -2149)">
            <circle id="Ellipse_10-85" data-name="Ellipse 10" class="cls-3" cx="2" cy="2" r="2"
                    transform="translate(368 2293)"/>
        </g>
        <g transform="translate(-200 -2149)">
            <circle id="Ellipse_10-86" data-name="Ellipse 10" class="cls-3" cx="2" cy="2" r="2"
                    transform="translate(368 2293)"/>
        </g>
        <g transform="translate(-176 -2149)">
            <circle id="Ellipse_10-87" data-name="Ellipse 10" class="cls-3" cx="2" cy="2" r="2"
                    transform="translate(368 2293)"/>
        </g>
        <g transform="translate(-152 -2149)">
            <circle id="Ellipse_10-88" data-name="Ellipse 10" class="cls-3" cx="2" cy="2" r="2"
                    transform="translate(368 2293)"/>
        </g>
        <g transform="translate(-128 -2149)">
            <circle id="Ellipse_10-89" data-name="Ellipse 10" class="cls-3" cx="2" cy="2" r="2"
                    transform="translate(368 2293)"/>
        </g>
        <g transform="translate(-104 -2149)">
            <circle id="Ellipse_10-90" data-name="Ellipse 10" class="cls-3" cx="2" cy="2" r="2"
                    transform="translate(368 2293)"/>
        </g>
        <g transform="translate(-80 -2149)">
            <circle id="Ellipse_10-91" data-name="Ellipse 10" class="cls-3" cx="2" cy="2" r="2"
                    transform="translate(368 2293)"/>
        </g>
        <g transform="translate(-368 -2125)">
            <circle id="Ellipse_10-92" data-name="Ellipse 10" class="cls-3" cx="2" cy="2" r="2"
                    transform="translate(368 2293)"/>
        </g>
        <g transform="translate(-344 -2125)">
            <circle id="Ellipse_10-93" data-name="Ellipse 10" class="cls-3" cx="2" cy="2" r="2"
                    transform="translate(368 2293)"/>
        </g>
        <g transform="translate(-320 -2125)">
            <circle id="Ellipse_10-94" data-name="Ellipse 10" class="cls-3" cx="2" cy="2" r="2"
                    transform="translate(368 2293)"/>
        </g>
        <g transform="translate(-296 -2125)">
            <circle id="Ellipse_10-95" data-name="Ellipse 10" class="cls-3" cx="2" cy="2" r="2"
                    transform="translate(368 2293)"/>
        </g>
        <g transform="translate(-272 -2125)">
            <circle id="Ellipse_10-96" data-name="Ellipse 10" class="cls-3" cx="2" cy="2" r="2"
                    transform="translate(368 2293)"/>
        </g>
        <g transform="translate(-248 -2125)">
            <circle id="Ellipse_10-97" data-name="Ellipse 10" class="cls-3" cx="2" cy="2" r="2"
                    transform="translate(368 2293)"/>
        </g>
        <g transform="translate(-224 -2125)">
            <circle id="Ellipse_10-98" data-name="Ellipse 10" class="cls-3" cx="2" cy="2" r="2"
                    transform="translate(368 2293)"/>
        </g>
        <g transform="translate(-200 -2125)">
            <circle id="Ellipse_10-99" data-name="Ellipse 10" class="cls-3" cx="2" cy="2" r="2"
                    transform="translate(368 2293)"/>
        </g>
        <g transform="translate(-176 -2125)">
            <circle id="Ellipse_10-100" data-name="Ellipse 10" class="cls-3" cx="2" cy="2" r="2"
                    transform="translate(368 2293)"/>
        </g>
        <g transform="translate(-152 -2125)">
            <circle id="Ellipse_10-101" data-name="Ellipse 10" class="cls-3" cx="2" cy="2" r="2"
                    transform="translate(368 2293)"/>
        </g>
        <g transform="translate(-128 -2125)">
            <circle id="Ellipse_10-102" data-name="Ellipse 10" class="cls-3" cx="2" cy="2" r="2"
                    transform="translate(368 2293)"/>
        </g>
        <g transform="translate(-104 -2125)">
            <circle id="Ellipse_10-103" data-name="Ellipse 10" class="cls-3" cx="2" cy="2" r="2"
                    transform="translate(368 2293)"/>
        </g>
        <g transform="translate(-80 -2125)">
            <circle id="Ellipse_10-104" data-name="Ellipse 10" class="cls-3" cx="2" cy="2" r="2"
                    transform="translate(368 2293)"/>
        </g>
        <g transform="translate(-368 -2101)">
            <circle id="Ellipse_10-105" data-name="Ellipse 10" class="cls-3" cx="2" cy="2" r="2"
                    transform="translate(368 2293)"/>
        </g>
        <g transform="translate(-344 -2101)">
            <circle id="Ellipse_10-106" data-name="Ellipse 10" class="cls-3" cx="2" cy="2" r="2"
                    transform="translate(368 2293)"/>
        </g>
        <g transform="translate(-320 -2101)">
            <circle id="Ellipse_10-107" data-name="Ellipse 10" class="cls-3" cx="2" cy="2" r="2"
                    transform="translate(368 2293)"/>
        </g>
        <g transform="translate(-296 -2101)">
            <circle id="Ellipse_10-108" data-name="Ellipse 10" class="cls-3" cx="2" cy="2" r="2"
                    transform="translate(368 2293)"/>
        </g>
        <g transform="translate(-272 -2101)">
            <circle id="Ellipse_10-109" data-name="Ellipse 10" class="cls-3" cx="2" cy="2" r="2"
                    transform="translate(368 2293)"/>
        </g>
        <g transform="translate(-248 -2101)">
            <circle id="Ellipse_10-110" data-name="Ellipse 10" class="cls-3" cx="2" cy="2" r="2"
                    transform="translate(368 2293)"/>
        </g>
        <g transform="translate(-224 -2101)">
            <circle id="Ellipse_10-111" data-name="Ellipse 10" class="cls-3" cx="2" cy="2" r="2"
                    transform="translate(368 2293)"/>
        </g>
        <g transform="translate(-200 -2101)">
            <circle id="Ellipse_10-112" data-name="Ellipse 10" class="cls-3" cx="2" cy="2" r="2"
                    transform="translate(368 2293)"/>
        </g>
        <g transform="translate(-176 -2101)">
            <circle id="Ellipse_10-113" data-name="Ellipse 10" class="cls-3" cx="2" cy="2" r="2"
                    transform="translate(368 2293)"/>
        </g>
        <g transform="translate(-152 -2101)">
            <circle id="Ellipse_10-114" data-name="Ellipse 10" class="cls-3" cx="2" cy="2" r="2"
                    transform="translate(368 2293)"/>
        </g>
        <g transform="translate(-128 -2101)">
            <circle id="Ellipse_10-115" data-name="Ellipse 10" class="cls-3" cx="2" cy="2" r="2"
                    transform="translate(368 2293)"/>
        </g>
        <g transform="translate(-104 -2101)">
            <circle id="Ellipse_10-116" data-name="Ellipse 10" class="cls-3" cx="2" cy="2" r="2"
                    transform="translate(368 2293)"/>
        </g>
        <g transform="translate(-80 -2101)">
            <circle id="Ellipse_10-117" data-name="Ellipse 10" class="cls-3" cx="2" cy="2" r="2"
                    transform="translate(368 2293)"/>
        </g>
        <g transform="translate(-368 -2077)">
            <circle id="Ellipse_10-118" data-name="Ellipse 10" class="cls-3" cx="2" cy="2" r="2"
                    transform="translate(368 2293)"/>
        </g>
        <g transform="translate(-344 -2077)">
            <circle id="Ellipse_10-119" data-name="Ellipse 10" class="cls-3" cx="2" cy="2" r="2"
                    transform="translate(368 2293)"/>
        </g>
        <g transform="translate(-320 -2077)">
            <circle id="Ellipse_10-120" data-name="Ellipse 10" class="cls-3" cx="2" cy="2" r="2"
                    transform="translate(368 2293)"/>
        </g>
        <g transform="translate(-296 -2077)">
            <circle id="Ellipse_10-121" data-name="Ellipse 10" class="cls-3" cx="2" cy="2" r="2"
                    transform="translate(368 2293)"/>
        </g>
        <g transform="translate(-272 -2077)">
            <circle id="Ellipse_10-122" data-name="Ellipse 10" class="cls-3" cx="2" cy="2" r="2"
                    transform="translate(368 2293)"/>
        </g>
        <g transform="translate(-248 -2077)">
            <circle id="Ellipse_10-123" data-name="Ellipse 10" class="cls-3" cx="2" cy="2" r="2"
                    transform="translate(368 2293)"/>
        </g>
        <g transform="translate(-224 -2077)">
            <circle id="Ellipse_10-124" data-name="Ellipse 10" class="cls-3" cx="2" cy="2" r="2"
                    transform="translate(368 2293)"/>
        </g>
        <g transform="translate(-200 -2077)">
            <circle id="Ellipse_10-125" data-name="Ellipse 10" class="cls-3" cx="2" cy="2" r="2"
                    transform="translate(368 2293)"/>
        </g>
        <g transform="translate(-176 -2077)">
            <circle id="Ellipse_10-126" data-name="Ellipse 10" class="cls-3" cx="2" cy="2" r="2"
                    transform="translate(368 2293)"/>
        </g>
        <g transform="translate(-152 -2077)">
            <circle id="Ellipse_10-127" data-name="Ellipse 10" class="cls-3" cx="2" cy="2" r="2"
                    transform="translate(368 2293)"/>
        </g>
        <g transform="translate(-128 -2077)">
            <circle id="Ellipse_10-128" data-name="Ellipse 10" class="cls-3" cx="2" cy="2" r="2"
                    transform="translate(368 2293)"/>
        </g>
        <g transform="translate(-104 -2077)">
            <circle id="Ellipse_10-129" data-name="Ellipse 10" class="cls-3" cx="2" cy="2" r="2"
                    transform="translate(368 2293)"/>
        </g>
        <g transform="translate(-80 -2077)">
            <circle id="Ellipse_10-130" data-name="Ellipse 10" class="cls-3" cx="2" cy="2" r="2"
                    transform="translate(368 2293)"/>
        </g>
        <g transform="translate(-368 -2053)">
            <circle id="Ellipse_10-131" data-name="Ellipse 10" class="cls-3" cx="2" cy="2" r="2"
                    transform="translate(368 2293)"/>
        </g>
        <g transform="translate(-344 -2053)">
            <circle id="Ellipse_10-132" data-name="Ellipse 10" class="cls-3" cx="2" cy="2" r="2"
                    transform="translate(368 2293)"/>
        </g>
        <g transform="translate(-320 -2053)">
            <circle id="Ellipse_10-133" data-name="Ellipse 10" class="cls-3" cx="2" cy="2" r="2"
                    transform="translate(368 2293)"/>
        </g>
        <g transform="translate(-296 -2053)">
            <circle id="Ellipse_10-134" data-name="Ellipse 10" class="cls-3" cx="2" cy="2" r="2"
                    transform="translate(368 2293)"/>
        </g>
        <g transform="translate(-272 -2053)">
            <circle id="Ellipse_10-135" data-name="Ellipse 10" class="cls-3" cx="2" cy="2" r="2"
                    transform="translate(368 2293)"/>
        </g>
        <g transform="translate(-248 -2053)">
            <circle id="Ellipse_10-136" data-name="Ellipse 10" class="cls-3" cx="2" cy="2" r="2"
                    transform="translate(368 2293)"/>
        </g>
        <g transform="translate(-224 -2053)">
            <circle id="Ellipse_10-137" data-name="Ellipse 10" class="cls-3" cx="2" cy="2" r="2"
                    transform="translate(368 2293)"/>
        </g>
        <g transform="translate(-200 -2053)">
            <circle id="Ellipse_10-138" data-name="Ellipse 10" class="cls-3" cx="2" cy="2" r="2"
                    transform="translate(368 2293)"/>
        </g>
        <g transform="translate(-176 -2053)">
            <circle id="Ellipse_10-139" data-name="Ellipse 10" class="cls-3" cx="2" cy="2" r="2"
                    transform="translate(368 2293)"/>
        </g>
        <g transform="translate(-152 -2053)">
            <circle id="Ellipse_10-140" data-name="Ellipse 10" class="cls-3" cx="2" cy="2" r="2"
                    transform="translate(368 2293)"/>
        </g>
        <g transform="translate(-128 -2053)">
            <circle id="Ellipse_10-141" data-name="Ellipse 10" class="cls-3" cx="2" cy="2" r="2"
                    transform="translate(368 2293)"/>
        </g>
        <g transform="translate(-104 -2053)">
            <circle id="Ellipse_10-142" data-name="Ellipse 10" class="cls-3" cx="2" cy="2" r="2"
                    transform="translate(368 2293)"/>
        </g>
        <g transform="translate(-80 -2053)">
            <circle id="Ellipse_10-143" data-name="Ellipse 10" class="cls-3" cx="2" cy="2" r="2"
                    transform="translate(368 2293)"/>
        </g>
        <g transform="translate(-368 -2029)">
            <circle id="Ellipse_10-144" data-name="Ellipse 10" class="cls-3" cx="2" cy="2" r="2"
                    transform="translate(368 2293)"/>
        </g>
        <g transform="translate(-344 -2029)">
            <circle id="Ellipse_10-145" data-name="Ellipse 10" class="cls-3" cx="2" cy="2" r="2"
                    transform="translate(368 2293)"/>
        </g>
        <g transform="translate(-320 -2029)">
            <circle id="Ellipse_10-146" data-name="Ellipse 10" class="cls-3" cx="2" cy="2" r="2"
                    transform="translate(368 2293)"/>
        </g>
        <g transform="translate(-296 -2029)">
            <circle id="Ellipse_10-147" data-name="Ellipse 10" class="cls-3" cx="2" cy="2" r="2"
                    transform="translate(368 2293)"/>
        </g>
        <g transform="translate(-272 -2029)">
            <circle id="Ellipse_10-148" data-name="Ellipse 10" class="cls-3" cx="2" cy="2" r="2"
                    transform="translate(368 2293)"/>
        </g>
        <g transform="translate(-248 -2029)">
            <circle id="Ellipse_10-149" data-name="Ellipse 10" class="cls-3" cx="2" cy="2" r="2"
                    transform="translate(368 2293)"/>
        </g>
        <g transform="translate(-224 -2029)">
            <circle id="Ellipse_10-150" data-name="Ellipse 10" class="cls-3" cx="2" cy="2" r="2"
                    transform="translate(368 2293)"/>
        </g>
        <g transform="translate(-200 -2029)">
            <circle id="Ellipse_10-151" data-name="Ellipse 10" class="cls-3" cx="2" cy="2" r="2"
                    transform="translate(368 2293)"/>
        </g>
        <g transform="translate(-176 -2029)">
            <circle id="Ellipse_10-152" data-name="Ellipse 10" class="cls-3" cx="2" cy="2" r="2"
                    transform="translate(368 2293)"/>
        </g>
        <g transform="translate(-152 -2029)">
            <circle id="Ellipse_10-153" data-name="Ellipse 10" class="cls-3" cx="2" cy="2" r="2"
                    transform="translate(368 2293)"/>
        </g>
        <g transform="translate(-128 -2029)">
            <circle id="Ellipse_10-154" data-name="Ellipse 10" class="cls-3" cx="2" cy="2" r="2"
                    transform="translate(368 2293)"/>
        </g>
        <g transform="translate(-104 -2029)">
            <circle id="Ellipse_10-155" data-name="Ellipse 10" class="cls-3" cx="2" cy="2" r="2"
                    transform="translate(368 2293)"/>
        </g>
        <g transform="translate(-80 -2029)">
            <circle id="Ellipse_10-156" data-name="Ellipse 10" class="cls-3" cx="2" cy="2" r="2"
                    transform="translate(368 2293)"/>
        </g>
    </g>
</svg>
