<svg xmlns="http://www.w3.org/2000/svg" width="85" height="85" viewBox="0 0 85 85">
  <g id="Group_94" data-name="Group 94" transform="translate(-1095 -2567)">
    <rect id="Rectangle_29" data-name="Rectangle 29" width="85" height="85" rx="10" transform="translate(1095 2567)" fill="#b7d0ff"/>
    <path id="Icon_awesome-child" data-name="Icon awesome-child" d="M10.547,6.328a6.328,6.328,0,1,1,6.328,6.328A6.328,6.328,0,0,1,10.547,6.328Zm22.379.121a2.812,2.812,0,0,0-3.977,0l-7.614,7.614h-8.92L4.8,6.449A2.812,2.812,0,0,0,.824,10.426l8.317,8.317V42.188A2.813,2.813,0,0,0,11.953,45h1.406a2.813,2.813,0,0,0,2.813-2.812V32.344h1.406v9.844A2.813,2.813,0,0,0,20.391,45H21.8a2.813,2.813,0,0,0,2.813-2.812V18.743l8.317-8.317a2.812,2.812,0,0,0,0-3.977Z" transform="translate(1120.875 2587)" fill="#6390e3"/>
  </g>
</svg>
