<svg xmlns:xlink="http://www.w3.org/1999/xlink" id="Capa_1" enable-background="new 0 0 512 512" height="512" viewBox="0 0 512 512"
     width="512" xmlns="http://www.w3.org/2000/svg">
    <linearGradient id="lg1">
        <stop offset="0" stop-color="#145ec7"/>
        <stop offset=".2176" stop-color="#1e69ce"/>
        <stop offset=".6013" stop-color="#3887e1"/>
        <stop offset="1" stop-color="#59acf9"/>
    </linearGradient>
    <linearGradient id="SVGID_1_" gradientUnits="userSpaceOnUse" x1="237.648" x2="237.648" xlink:href="#lg1"
                    y1="441.146" y2="227.185"/>
    <linearGradient id="lg2">
        <stop offset="0" stop-color="#79d3fe"/>
        <stop offset=".2134" stop-color="#84d7fe"/>
        <stop offset=".5896" stop-color="#a2e0ff"/>
        <stop offset="1" stop-color="#c9edff"/>
    </linearGradient>
    <linearGradient id="SVGID_2_" gradientUnits="userSpaceOnUse" x1="266.316" x2="266.316" xlink:href="#lg2" y1="615.17"
                    y2="62.706"/>
    <linearGradient id="SVGID_3_" gradientUnits="userSpaceOnUse" x1="266.316" x2="266.316" y1="509.903" y2="60.434">
        <stop offset="0" stop-color="#59acf9"/>
        <stop offset=".3738" stop-color="#62b7fa"/>
        <stop offset="1" stop-color="#79d3fe"/>
    </linearGradient>
    <linearGradient id="SVGID_4_" gradientUnits="userSpaceOnUse" x1="248.119" x2="350.288" xlink:href="#lg1"
                    y1="450.914" y2="205.708"/>
    <linearGradient id="SVGID_5_" gradientUnits="userSpaceOnUse" x1="82.947" x2="165.61" xlink:href="#lg1" y1="247.777"
                    y2="104.601"/>
    <linearGradient id="SVGID_6_" gradientUnits="userSpaceOnUse" x1="133.47" x2="446.876" xlink:href="#lg2" y1="130.564"
                    y2="-50.381"/>
    <linearGradient id="SVGID_7_" gradientTransform="matrix(.866 -.5 0 1.155 276.822 1478.138)"
                    gradientUnits="userSpaceOnUse" x1="-34.374" x2="-34.374" y1="-906.893" y2="-1235.969">
        <stop offset="0" stop-color="#f7e041"/>
        <stop offset="1" stop-color="#fcf3b3"/>
    </linearGradient>
    <linearGradient id="SVGID_8_" gradientUnits="userSpaceOnUse" x1="232.774" x2="253.172" y1="318.044" y2="165.439">
        <stop offset="0" stop-color="#e37a34"/>
        <stop offset=".3684" stop-color="#ef9b36"/>
        <stop offset=".7724" stop-color="#fbba37"/>
        <stop offset="1" stop-color="#ffc538"/>
    </linearGradient>
    <linearGradient id="lg3">
        <stop offset="0" stop-color="#e37a34"/>
        <stop offset="1" stop-color="#ffc538"/>
    </linearGradient>
    <linearGradient id="SVGID_9_" gradientUnits="userSpaceOnUse" x1="239.869" x2="167.884" xlink:href="#lg3" y1="251.48"
                    y2="331.247"/>
    <linearGradient id="SVGID_10_" gradientUnits="userSpaceOnUse" x1="190.77" x2="240.632" xlink:href="#lg3"
                    y1="445.449" y2="332.884"/>
    <linearGradient id="SVGID_11_" gradientUnits="userSpaceOnUse" x1="183.928" x2="313.877" xlink:href="#lg3"
                    y1="204.626" y2="234.096"/>
    <linearGradient id="SVGID_12_" gradientUnits="userSpaceOnUse" x1="246.249" x2="316.507" xlink:href="#lg3"
                    y1="376.717" y2="291.349"/>
    <linearGradient id="SVGID_13_" gradientUnits="userSpaceOnUse" x1="193.445" x2="264.749" xlink:href="#lg1"
                    y1="491.704" y2="450.537"/>
    <g>
        <path d="m416.092 75.72-55.849-32.197c-.381-3.311-244.602 64.255-244.602 64.255 0 41.56-25.268 89.839-56.438 107.834v105.546c0 71.349 23.739 123.93 63.178 145.969l54.252 31.322-.089-.135c13.855 8.507 239.548-422.594 239.548-422.594z"
              fill="url(#SVGID_1_)"/>
        <path d="m416.092 75.72c-31.17 17.996-56.437-1.106-56.437-42.666l-186.678 107.779c0 41.559-25.268 89.839-56.437 107.834v105.546c0 95.034 42.114 156.777 107.352 157.389l42.424.398 42.424-49.385c65.239-75.943 107.352-186.315 107.352-281.349z"
              fill="url(#SVGID_2_)"/>
        <path d="m341.957 72.214c10.167 23.125 29.478 34.352 49.07 35.28v73.771c0 43.607-9.532 91.637-27.565 138.898-18.091 47.414-43.589 91.025-73.736 126.118l-34.83 40.545-30.77-.289c-23.779-.223-43.181-11.106-57.669-32.346-16.259-23.838-24.854-58.41-24.854-99.979v-92.491c28.903-23.327 51.047-65.425 55.583-105.925z"
              fill="url(#SVGID_3_)"/>
        <g>
            <path d="m354.879 91.442c.01.002.02.006.03.009-1.904-1.911-3.715-3.996-5.413-6.258-.024-.032-.048-.064-.072-.096-2.832-3.787-5.351-8.071-7.467-12.882l-10.772 6.219c3.284 3.072 6.833 5.631 10.553 7.726l-.017.006 24.163 13.854c-3.91-2.309-7.607-5.168-11.005-8.578z"
                  fill="#0072bc"/>
            <path d="m391.028 107.495c-8.697-.412-17.333-2.865-25.143-7.475v66.834c0 43.607-9.532 91.637-27.565 138.898-18.091 47.414-43.589 91.025-73.735 126.118l-34.83 40.545-30.771-.289c-6.907-.065-13.432-1.057-19.587-2.913 12.46 11.33 27.43 17.163 44.73 17.325l30.77.289 34.83-40.545c30.147-35.093 55.644-78.704 73.735-126.118 18.033-47.261 27.565-95.291 27.565-138.898z"
                  fill="url(#SVGID_4_)"/>
        </g>
        <path d="m116.54 248.667c31.169-17.996 56.437-66.275 56.437-107.834l-57.336-33.054c0 41.56-25.268 89.839-56.438 107.834z"
              fill="url(#SVGID_5_)"/>
        <path d="m359.655 33.054-57.336-33.054-186.678 107.779 57.336 33.054z" fill="url(#SVGID_6_)"/>
        <g>
            <path d="m247.054 131.33 30.129 75.147 75.32-33.877-56.699 99.538 16.421 89-65.171-13.629-65.172 88.883 16.422-107.962-56.7-34.068 75.32-53.095z"
                  fill="url(#SVGID_7_)"/>
            <path d="m247.054 131.33 15.226 161.321-45.356-51.384z" fill="url(#SVGID_8_)"/>
            <path d="m262.28 292.651-120.676 1.711 56.7 34.068z" fill="url(#SVGID_9_)"/>
            <path d="m181.882 436.392 80.398-143.741-15.226 54.858z" fill="url(#SVGID_10_)"/>
            <path d="m277.183 206.477-14.903 86.174 90.223-120.051z" fill="url(#SVGID_11_)"/>
            <path d="m262.28 292.651 49.945 68.487-16.421-89z" fill="url(#SVGID_12_)"/>
        </g>
        <path d="" fill="#ff4757"/>
        <path d="m198.984 472.126c-6.907-.065-13.432-1.057-19.587-2.913 12.46 11.33 27.43 17.163 44.73 17.325l30.77.289-25.143-14.412z"
              fill="url(#SVGID_13_)"/>
    </g>
</svg>
