<svg xmlns="http://www.w3.org/2000/svg" width="72" height="72" viewBox="0 0 72 72">
  <g id="Group_101" data-name="Group 101" transform="translate(-216 -4696)">
    <g id="Ellipse_25" data-name="Ellipse 25" transform="translate(216 4696)" fill="none" stroke="#f8a551" stroke-width="3">
      <circle cx="36" cy="36" r="36" stroke="none"/>
      <circle cx="36" cy="36" r="34.5" fill="none"/>
    </g>
    <path id="Icon_awesome-ticket-alt" data-name="Icon awesome-ticket-alt" d="M7.989,11.617H27.963V23.6H7.989Zm24.967,5.992a3,3,0,0,0,3,3V26.6a3,3,0,0,1-3,3H3a3,3,0,0,1-3-3V20.605a3,3,0,0,0,3-3,3,3,0,0,0-3-3V8.621a3,3,0,0,1,3-3h29.96a3,3,0,0,1,3,3v5.992A3,3,0,0,0,32.956,17.609Zm-3-6.491a1.5,1.5,0,0,0-1.5-1.5H7.49a1.5,1.5,0,0,0-1.5,1.5V24.1a1.5,1.5,0,0,0,1.5,1.5H28.462a1.5,1.5,0,0,0,1.5-1.5Z" transform="translate(269.184 4714.024) rotate(90)" fill="#f8a551"/>
  </g>
</svg>
