<svg xmlns="http://www.w3.org/2000/svg" width="71" height="71" viewBox="0 0 71 71">
    <g id="Group_101" data-name="Group 101" transform="translate(-0.289 -0.432)">
        <g id="Ellipse_25" data-name="Ellipse 25" transform="translate(0.289 0.432)" fill="none" stroke="#f8a551"
           stroke-width="3">
            <circle cx="35.5" cy="35.5" r="35.5" stroke="none"/>
            <circle cx="35.5" cy="35.5" r="34" fill="none"/>
        </g>
        <path id="Icon_material-lock" data-name="Icon material-lock"
              d="M32.452,14.351H30.67V10.786a8.911,8.911,0,1,0-17.823,0v3.565H11.065A3.575,3.575,0,0,0,7.5,17.916V35.738A3.575,3.575,0,0,0,11.065,39.3H32.452a3.575,3.575,0,0,0,3.565-3.565V17.916A3.575,3.575,0,0,0,32.452,14.351ZM21.758,30.392a3.565,3.565,0,1,1,3.565-3.565A3.575,3.575,0,0,1,21.758,30.392Zm5.525-16.041H16.233V10.786a5.525,5.525,0,1,1,11.05,0Z"
              transform="translate(14.525 15.248)" fill="#f8a551"/>
    </g>
</svg>
