<svg xmlns="http://www.w3.org/2000/svg" width="14.506" height="14.138" viewBox="0 0 14.506 14.138">
    <path id="Icon_awesome-arrow-right" data-name="Icon awesome-arrow-right"
          d="M6.167,2.785l.719-.719a.774.774,0,0,1,1.1,0l6.294,6.29a.774.774,0,0,1,0,1.1L7.984,15.748a.774.774,0,0,1-1.1,0l-.719-.719a.778.778,0,0,1,.013-1.11l3.9-3.717H.777A.775.775,0,0,1,0,9.425V8.389a.775.775,0,0,1,.777-.777h9.3L6.18,3.9A.772.772,0,0,1,6.167,2.785Z"
          transform="translate(0 -1.838)" fill="#ff7365"/>
</svg>
