<svg xmlns="http://www.w3.org/2000/svg" xmlns:xlink="http://www.w3.org/1999/xlink" width="197.35" height="197.35" viewBox="0 0 197.35 197.35">
  <defs>
    <filter id="Polygon_6" x="0" y="0" width="197.35" height="197.35" filterUnits="userSpaceOnUse">
      <feOffset input="SourceAlpha"/>
      <feGaussianBlur stdDeviation="10.5" result="blur"/>
      <feFlood flood-color="#f5b0f5" flood-opacity="0.639"/>
      <feComposite operator="in" in2="blur"/>
      <feComposite in="SourceGraphic"/>
    </filter>
  </defs>
  <g transform="matrix(1, 0, 0, 1, 0, 0)" filter="url(#Polygon_6)">
    <g id="Polygon_6-2" data-name="Polygon 6" transform="translate(93.73 31.5) rotate(45)" fill="none">
      <path d="M34.561,28.365a19,19,0,0,1,32.878,0L85.467,59.473A19,19,0,0,1,69.028,88H32.972A19,19,0,0,1,16.533,59.473Z" stroke="none"/>
      <path d="M 50.99999618530273 29.89209747314453 C 49.61388778686523 29.89209747314453 46.16473388671875 30.28074645996094 44.07838821411133 33.88072204589844 L 26.04993438720703 64.98859405517578 C 23.95764923095703 68.59883117675781 25.34601593017578 71.78990173339844 26.04006195068359 72.99430847167969 C 26.73410797119141 74.19869995117188 28.79884338378906 77.00000762939453 32.9715576171875 77.00000762939453 L 69.02842712402344 77.00000762939453 C 73.20114898681641 77.00000762939453 75.26588439941406 74.19869995117188 75.95993041992188 72.99430847167969 C 76.65397644042969 71.78990173339844 78.04234313964844 68.59883117675781 75.95005798339844 64.98861694335938 L 57.92160415649414 33.88070678710938 C 55.83525848388672 30.28074645996094 52.38610458374023 29.89209747314453 50.99999618530273 29.89209747314453 M 50.99999618530273 18.89209747314453 C 57.38940811157227 18.89209747314453 63.77882385253906 22.04974365234375 67.43882751464844 28.36505126953125 L 85.46727752685547 59.47294235229492 C 92.80816650390625 72.13959503173828 83.66854095458984 88.00000762939453 69.02842712402344 88.00000762939453 L 32.9715576171875 88.00000762939453 C 18.33145141601562 88.00000762939453 9.191825866699219 72.13959503173828 16.53271484375 59.47294235229492 L 34.56117248535156 28.36505126953125 C 38.22116851806641 22.04974365234375 44.6105842590332 18.89209747314453 50.99999618530273 18.89209747314453 Z" stroke="none" fill="#f5b0f5"/>
    </g>
  </g>
</svg>
